<?xml version="1.0" encoding="utf-8"?>
<!-- Generator: Adobe Illustrator 18.1.1, SVG Export Plug-In . SVG Version: 6.00 Build 0)  -->
<svg version="1.1" id="Layer_1" xmlns="http://www.w3.org/2000/svg" xmlns:xlink="http://www.w3.org/1999/xlink" x="0px" y="0px"
	 viewBox="0 0 600 600" enable-background="new 0 0 600 600" xml:space="preserve">
<g>
	<path fill="#1945FF" d="M218.3,288.8c-0.1,0.3-0.1,0.6-0.2,0.9C218.2,289.3,218.2,289.1,218.3,288.8z"/>
	<path fill="#1945FF" d="M218,290c-0.1,0.3-0.1,0.6-0.2,0.9C217.9,290.5,218,290.3,218,290z"/>
	<path fill="#1945FF" d="M222.5,277.3c-0.2,0.3-0.3,0.7-0.5,1C222.1,278,222.3,277.7,222.5,277.3z"/>
	<path fill="#1945FF" d="M223.1,276.3c-0.2,0.3-0.4,0.7-0.5,1C222.7,276.9,222.9,276.6,223.1,276.3z"/>
	<path fill="#1945FF" d="M218.6,287.6c-0.1,0.3-0.1,0.6-0.2,0.9C218.4,288.2,218.5,287.9,218.6,287.6z"/>
	<path fill="#1945FF" d="M217.8,291.2c-0.1,0.3-0.1,0.6-0.1,0.8C217.7,291.8,217.7,291.5,217.8,291.2z"/>
	<path fill="#1945FF" d="M217.6,292.4c0,0.3-0.1,0.6-0.1,0.8C217.5,293,217.5,292.7,217.6,292.4z"/>
	<path fill="#1945FF" d="M221.4,279.5c-0.1,0.3-0.3,0.7-0.4,1C221.1,280.2,221.3,279.8,221.4,279.5z"/>
	<path fill="#1945FF" d="M220,282.9c-0.1,0.3-0.2,0.6-0.3,1C219.8,283.5,219.9,283.2,220,282.9z"/>
	<path fill="#1945FF" d="M220.5,281.8c-0.1,0.3-0.3,0.6-0.4,1C220.2,282.4,220.3,282.1,220.5,281.8z"/>
	<path fill="#1945FF" d="M219.6,284c-0.1,0.3-0.2,0.6-0.3,0.9C219.4,284.7,219.5,284.4,219.6,284z"/>
	<path fill="#1945FF" d="M221.9,278.4c-0.2,0.3-0.3,0.7-0.5,1C221.6,279.1,221.8,278.7,221.9,278.4z"/>
	<path fill="#1945FF" d="M218.9,286.4c-0.1,0.3-0.2,0.6-0.2,0.9C218.7,287,218.8,286.7,218.9,286.4z"/>
	<path fill="#1945FF" d="M219.2,285.2c-0.1,0.3-0.2,0.6-0.3,0.9C219.1,285.8,219.2,285.5,219.2,285.2z"/>
	<path fill="#1945FF" d="M224.3,274.2c-0.2,0.3-0.4,0.7-0.6,1C223.9,274.9,224.1,274.5,224.3,274.2z"/>
	<path fill="#1945FF" d="M224.9,273.2c2-3,4.2-5.8,6.8-8.3h0C229.1,267.3,226.9,270.1,224.9,273.2z"/>
	<path fill="#1945FF" d="M217,298.7c0,0.4,0,0.9,0,1.3C217,299.6,217,299.1,217,298.7z"/>
	<path fill="#1945FF" d="M217.1,297.4c0,0.3,0,0.6,0,0.8C217,298,217.1,297.7,217.1,297.4z"/>
	<path fill="#1945FF" d="M224.9,273.2c-0.2,0.3-0.4,0.7-0.6,1C224.5,273.8,224.7,273.5,224.9,273.2z"/>
	<path fill="#1945FF" d="M220.9,280.6c-0.1,0.3-0.3,0.7-0.4,1C220.7,281.3,220.8,281,220.9,280.6z"/>
	<path fill="#1945FF" d="M217.3,294.9c0,0.3,0,0.5-0.1,0.8C217.2,295.5,217.2,295.2,217.3,294.9z"/>
	<path fill="#1945FF" d="M223.6,275.2c-0.2,0.3-0.4,0.7-0.6,1C223.3,275.9,223.4,275.6,223.6,275.2z"/>
	<path fill="#1945FF" d="M217.4,293.7c0,0.3-0.1,0.5-0.1,0.8C217.3,294.2,217.4,293.9,217.4,293.7z"/>
	<path fill="#1945FF" d="M217.1,296.2c0,0.3,0,0.5-0.1,0.8C217.1,296.7,217.1,296.4,217.1,296.2z"/>
	<path fill="#FF0079" d="M316,399v-49.5h-49.5c-27.3,0-49.5-22.2-49.5-49.5c0-0.4,0-0.9,0-1.3c0-0.1,0-0.3,0-0.4c0-0.3,0-0.6,0-0.8
		c0-0.2,0-0.3,0-0.5c0-0.3,0-0.5,0.1-0.8c0-0.1,0-0.3,0-0.4c0-0.3,0-0.5,0.1-0.8c0-0.1,0-0.3,0-0.4c0-0.3,0.1-0.6,0.1-0.8
		c0-0.1,0-0.3,0.1-0.4c0-0.3,0.1-0.6,0.1-0.8c0-0.1,0-0.3,0.1-0.4c0-0.3,0.1-0.6,0.1-0.8c0-0.1,0-0.2,0.1-0.4
		c0.1-0.3,0.1-0.6,0.2-0.9c0-0.1,0-0.2,0.1-0.3c0.1-0.3,0.1-0.6,0.2-0.9c0-0.1,0.1-0.2,0.1-0.3c0.1-0.3,0.1-0.6,0.2-0.9
		c0-0.1,0.1-0.2,0.1-0.3c0.1-0.3,0.2-0.6,0.2-0.9c0-0.1,0-0.2,0.1-0.2c0.1-0.3,0.2-0.6,0.3-0.9c0-0.1,0-0.1,0.1-0.2
		c0.1-0.3,0.2-0.6,0.3-0.9c0-0.1,0-0.1,0.1-0.2c0.1-0.3,0.2-0.6,0.3-1c0-0.1,0-0.1,0.1-0.2c0.1-0.3,0.2-0.6,0.4-1c0,0,0-0.1,0.1-0.1
		c0.1-0.3,0.3-0.7,0.4-1c0,0,0-0.1,0.1-0.1c0.1-0.3,0.3-0.7,0.4-1c0,0,0-0.1,0-0.1c0.2-0.3,0.3-0.7,0.5-1c0,0,0-0.1,0-0.1
		c0.2-0.3,0.3-0.7,0.5-1c0,0,0,0,0-0.1c0.2-0.3,0.4-0.7,0.5-1c0,0,0,0,0,0c0.2-0.3,0.4-0.7,0.6-1c0,0,0,0,0,0c0.2-0.3,0.4-0.7,0.6-1
		c0,0,0,0,0,0c0.2-0.3,0.4-0.7,0.6-1h0c2-3,4.2-5.8,6.8-8.3l0,0l98.8-98.8c9-9,21.3-14.5,35-14.5h-99C184.5,151.5,118,218,118,300
		s66.5,148.5,148.5,148.5h99C338.2,448.5,316,426.3,316,399z"/>
	<path fill="#1945FF" d="M464.5,250.5H415V201c0,27.3-22.2,49.5-49.5,49.5h-99c-13.6,0-25.9,5.5-34.8,14.3h0
		c-2.5,2.5-4.8,5.3-6.8,8.3h0c-0.2,0.3-0.4,0.7-0.6,1c0,0,0,0,0,0c-0.2,0.3-0.4,0.7-0.6,1c0,0,0,0,0,0c-0.2,0.3-0.4,0.7-0.6,1
		c0,0,0,0,0,0c-0.2,0.3-0.4,0.7-0.5,1c0,0,0,0,0,0.1c-0.2,0.3-0.3,0.7-0.5,1c0,0,0,0.1,0,0.1c-0.2,0.3-0.3,0.7-0.5,1
		c0,0,0,0.1,0,0.1c-0.1,0.3-0.3,0.7-0.4,1c0,0,0,0.1-0.1,0.1c-0.1,0.3-0.3,0.7-0.4,1c0,0,0,0.1-0.1,0.1c-0.1,0.3-0.3,0.6-0.4,1
		c0,0.1,0,0.1-0.1,0.2c-0.1,0.3-0.2,0.6-0.3,1c0,0.1,0,0.1-0.1,0.2c-0.1,0.3-0.2,0.6-0.3,0.9c0,0.1,0,0.1-0.1,0.2
		c-0.1,0.3-0.2,0.6-0.3,0.9c0,0.1,0,0.2-0.1,0.2c-0.1,0.3-0.2,0.6-0.2,0.9c0,0.1-0.1,0.2-0.1,0.3c-0.1,0.3-0.1,0.6-0.2,0.9
		c0,0.1-0.1,0.2-0.1,0.3c-0.1,0.3-0.1,0.6-0.2,0.9c0,0.1-0.1,0.2-0.1,0.3c-0.1,0.3-0.1,0.6-0.2,0.9c0,0.1,0,0.2-0.1,0.4
		c-0.1,0.3-0.1,0.6-0.1,0.8c0,0.1,0,0.3-0.1,0.4c0,0.3-0.1,0.6-0.1,0.8c0,0.1,0,0.3-0.1,0.4c0,0.3-0.1,0.5-0.1,0.8
		c0,0.1,0,0.3,0,0.4c0,0.3,0,0.5-0.1,0.8c0,0.1,0,0.3,0,0.4c0,0.3,0,0.5-0.1,0.8c0,0.2,0,0.3,0,0.5c0,0.3,0,0.6,0,0.8
		c0,0.1,0,0.3,0,0.4c0,0.4,0,0.9,0,1.3c0,27.3,22.2,49.5,49.5,49.5H316h49.5c27.3,0,49.5,22.2,49.5,49.5v-49.5h49.5
		c27.3,0,49.5-22.2,49.5-49.5S491.8,250.5,464.5,250.5z"/>
	<path fill="#1945FF" d="M224.9,273.2L224.9,273.2L224.9,273.2z"/>
	<path fill="#1945FF" d="M224.9,273.2L224.9,273.2L224.9,273.2z"/>
	<path fill="#1945FF" d="M221,280.5c0,0,0,0.1-0.1,0.1C221,280.6,221,280.5,221,280.5z"/>
	<path fill="#1945FF" d="M221,280.5c0,0,0,0.1-0.1,0.1C221,280.6,221,280.5,221,280.5z"/>
	<path fill="#1945FF" d="M222.5,277.3C222.5,277.3,222.5,277.3,222.5,277.3C222.5,277.3,222.5,277.3,222.5,277.3z"/>
	<path fill="#1945FF" d="M222.5,277.3C222.5,277.3,222.5,277.3,222.5,277.3C222.5,277.3,222.5,277.3,222.5,277.3z"/>
	<path fill="#1945FF" d="M221.5,279.4c0,0,0,0.1,0,0.1C221.4,279.5,221.5,279.4,221.5,279.4z"/>
	<path fill="#1945FF" d="M221.5,279.4c0,0,0,0.1,0,0.1C221.4,279.5,221.5,279.4,221.5,279.4z"/>
	<path fill="#1945FF" d="M222,278.3C222,278.4,222,278.4,222,278.3C222,278.4,222,278.4,222,278.3z"/>
	<path fill="#1945FF" d="M222,278.3C222,278.4,222,278.4,222,278.3C222,278.4,222,278.4,222,278.3z"/>
	<path fill="#1945FF" d="M224.3,274.2C224.3,274.2,224.3,274.2,224.3,274.2C224.3,274.2,224.3,274.2,224.3,274.2z"/>
	<path fill="#1945FF" d="M224.3,274.2C224.3,274.2,224.3,274.2,224.3,274.2C224.3,274.2,224.3,274.2,224.3,274.2z"/>
	<path fill="#1945FF" d="M223.1,276.2C223.1,276.2,223.1,276.3,223.1,276.2C223.1,276.3,223.1,276.2,223.1,276.2z"/>
	<path fill="#1945FF" d="M223.1,276.2C223.1,276.2,223.1,276.3,223.1,276.2C223.1,276.3,223.1,276.2,223.1,276.2z"/>
	<path fill="#1945FF" d="M223.7,275.2C223.7,275.2,223.6,275.2,223.7,275.2C223.6,275.2,223.7,275.2,223.7,275.2z"/>
	<path fill="#1945FF" d="M223.7,275.2C223.7,275.2,223.6,275.2,223.7,275.2C223.6,275.2,223.7,275.2,223.7,275.2z"/>
	<path fill="#1945FF" d="M217.6,292c0,0.1,0,0.3-0.1,0.4C217.6,292.3,217.6,292.2,217.6,292z"/>
	<path fill="#1945FF" d="M217.6,292c0,0.1,0,0.3-0.1,0.4C217.6,292.3,217.6,292.2,217.6,292z"/>
	<path fill="#1945FF" d="M217.2,295.7c0,0.1,0,0.3,0,0.4C217.2,296,217.2,295.9,217.2,295.7z"/>
	<path fill="#1945FF" d="M217.2,295.7c0,0.1,0,0.3,0,0.4C217.2,296,217.2,295.9,217.2,295.7z"/>
	<path fill="#1945FF" d="M217.1,297c0,0.2,0,0.3,0,0.5C217.1,297.3,217.1,297.1,217.1,297z"/>
	<path fill="#1945FF" d="M217.1,297c0,0.2,0,0.3,0,0.5C217.1,297.3,217.1,297.1,217.1,297z"/>
	<path fill="#1945FF" d="M217.3,294.5c0,0.1,0,0.3,0,0.4C217.3,294.8,217.3,294.6,217.3,294.5z"/>
	<path fill="#1945FF" d="M217.3,294.5c0,0.1,0,0.3,0,0.4C217.3,294.8,217.3,294.6,217.3,294.5z"/>
	<path fill="#1945FF" d="M217.9,290.8c0,0.1,0,0.2-0.1,0.4C217.8,291.1,217.8,291,217.9,290.8z"/>
	<path fill="#1945FF" d="M217.9,290.8c0,0.1,0,0.2-0.1,0.4C217.8,291.1,217.8,291,217.9,290.8z"/>
	<path fill="#1945FF" d="M217.5,293.3c0,0.1,0,0.3-0.1,0.4C217.4,293.5,217.4,293.4,217.5,293.3z"/>
	<path fill="#1945FF" d="M217.5,293.3c0,0.1,0,0.3-0.1,0.4C217.4,293.5,217.4,293.4,217.5,293.3z"/>
	<path fill="#1945FF" d="M217,298.3c0,0.1,0,0.3,0,0.4C217,298.6,217,298.4,217,298.3z"/>
	<path fill="#1945FF" d="M217,298.3c0,0.1,0,0.3,0,0.4C217,298.6,217,298.4,217,298.3z"/>
	<path fill="#1945FF" d="M365.5,349.5H316V399c0,27.3,22.2,49.5,49.5,49.5S415,426.3,415,399S392.8,349.5,365.5,349.5z"/>
	<path fill="#00008A" d="M365.5,349.5H316V399c0,27.3,22.2,49.5,49.5,49.5S415,426.3,415,399S392.8,349.5,365.5,349.5z"/>
	<path fill="#1945FF" d="M231.7,264.8L231.7,264.8c8.9-8.8,21.2-14.3,34.8-14.3h99c27.3,0,49.5-22.2,49.5-49.5s-22.2-49.5-49.5-49.5
		c-13.7,0-26,5.5-35,14.5L231.7,264.8z"/>
	<path fill="#00008A" d="M231.7,264.8L231.7,264.8c8.9-8.8,21.2-14.3,34.8-14.3h99c27.3,0,49.5-22.2,49.5-49.5s-22.2-49.5-49.5-49.5
		c-13.7,0-26,5.5-35,14.5L231.7,264.8z"/>
	<path fill="#1945FF" d="M220.1,282.7c0,0.1,0,0.1-0.1,0.2C220.1,282.8,220.1,282.8,220.1,282.7z"/>
	<path fill="#1945FF" d="M220.1,282.7c0,0.1,0,0.1-0.1,0.2C220.1,282.8,220.1,282.8,220.1,282.7z"/>
	<path fill="#1945FF" d="M219.3,285c0,0.1,0,0.1-0.1,0.2C219.3,285.1,219.3,285.1,219.3,285z"/>
	<path fill="#1945FF" d="M219.3,285c0,0.1,0,0.1-0.1,0.2C219.3,285.1,219.3,285.1,219.3,285z"/>
	<path fill="#1945FF" d="M219.7,283.8c0,0.1,0,0.1-0.1,0.2C219.7,284,219.7,283.9,219.7,283.8z"/>
	<path fill="#1945FF" d="M219.7,283.8c0,0.1,0,0.1-0.1,0.2C219.7,284,219.7,283.9,219.7,283.8z"/>
	<path fill="#1945FF" d="M220.5,281.6c0,0,0,0.1-0.1,0.1C220.5,281.7,220.5,281.7,220.5,281.6z"/>
	<path fill="#1945FF" d="M220.5,281.6c0,0,0,0.1-0.1,0.1C220.5,281.7,220.5,281.7,220.5,281.6z"/>
	<path fill="#1945FF" d="M219,286.1c0,0.1,0,0.2-0.1,0.2C218.9,286.3,218.9,286.2,219,286.1z"/>
	<path fill="#1945FF" d="M219,286.1c0,0.1,0,0.2-0.1,0.2C218.9,286.3,218.9,286.2,219,286.1z"/>
	<path fill="#1945FF" d="M218.1,289.6c0,0.1-0.1,0.2-0.1,0.3C218,289.9,218.1,289.8,218.1,289.6z"/>
	<path fill="#1945FF" d="M218.1,289.6c0,0.1-0.1,0.2-0.1,0.3C218,289.9,218.1,289.8,218.1,289.6z"/>
	<path fill="#1945FF" d="M218.4,288.5c0,0.1-0.1,0.2-0.1,0.3C218.3,288.7,218.3,288.6,218.4,288.5z"/>
	<path fill="#1945FF" d="M218.4,288.5c0,0.1-0.1,0.2-0.1,0.3C218.3,288.7,218.3,288.6,218.4,288.5z"/>
	<path fill="#1945FF" d="M218.6,287.3c0,0.1-0.1,0.2-0.1,0.3C218.6,287.5,218.6,287.4,218.6,287.3z"/>
	<path fill="#1945FF" d="M218.6,287.3c0,0.1-0.1,0.2-0.1,0.3C218.6,287.5,218.6,287.4,218.6,287.3z"/>
</g>
</svg>
