<?xml version="1.0" encoding="utf-8"?>
<!-- Generator: Adobe Illustrator 18.1.1, SVG Export Plug-In . SVG Version: 6.00 Build 0)  -->
<svg version="1.1" id="Layer_1" xmlns="http://www.w3.org/2000/svg" xmlns:xlink="http://www.w3.org/1999/xlink" x="0px" y="0px"
	 viewBox="0 0 300.1 225.1" enable-background="new 0 0 300.1 225.1" xml:space="preserve">
<path fill="#1945FF" d="M76,104c-0.1,0.2-0.1,0.4-0.2,0.7C75.9,104.5,75.9,104.3,76,104z"/>
<path fill="#1945FF" d="M75.8,104.9c-0.1,0.2-0.1,0.4-0.1,0.7C75.7,105.4,75.7,105.2,75.8,104.9z"/>
<path fill="#1945FF" d="M79.2,95.4c-0.1,0.3-0.3,0.5-0.4,0.8C78.9,95.9,79,95.6,79.2,95.4z"/>
<path fill="#1945FF" d="M79.6,94.6c-0.1,0.3-0.3,0.5-0.4,0.8C79.3,95.1,79.5,94.8,79.6,94.6z"/>
<path fill="#1945FF" d="M76.2,103.1c-0.1,0.2-0.1,0.4-0.2,0.7C76.1,103.6,76.2,103.4,76.2,103.1z"/>
<path fill="#1945FF" d="M75.6,105.9c0,0.2-0.1,0.4-0.1,0.7C75.5,106.3,75.6,106.1,75.6,105.9z"/>
<path fill="#1945FF" d="M75.5,106.8c0,0.2-0.1,0.4-0.1,0.6C75.4,107.2,75.4,107,75.5,106.8z"/>
<path fill="#1945FF" d="M78.4,97c-0.1,0.3-0.2,0.5-0.3,0.8C78.1,97.5,78.2,97.3,78.4,97z"/>
<path fill="#1945FF" d="M77.3,99.6c-0.1,0.2-0.2,0.5-0.3,0.7C77.1,100.1,77.2,99.8,77.3,99.6z"/>
<path fill="#1945FF" d="M77.6,98.7c-0.1,0.2-0.2,0.5-0.3,0.7C77.5,99.2,77.5,99,77.6,98.7z"/>
<path fill="#1945FF" d="M77,100.5c-0.1,0.2-0.2,0.5-0.2,0.7C76.8,100.9,76.9,100.7,77,100.5z"/>
<path fill="#1945FF" d="M78.8,96.2c-0.1,0.3-0.2,0.5-0.4,0.8C78.5,96.7,78.6,96.5,78.8,96.2z"/>
<path fill="#1945FF" d="M76.4,102.2c-0.1,0.2-0.1,0.5-0.2,0.7C76.3,102.7,76.4,102.5,76.4,102.2z"/>
<path fill="#1945FF" d="M76.7,101.3c-0.1,0.2-0.1,0.5-0.2,0.7C76.6,101.8,76.6,101.6,76.7,101.3z"/>
<path fill="#1945FF" d="M80.5,93c-0.2,0.3-0.3,0.5-0.5,0.8C80.2,93.5,80.3,93.2,80.5,93z"/>
<path fill="#1945FF" d="M81,92.2c1.5-2.3,3.2-4.4,5.1-6.3l0,0C84.2,87.8,82.5,89.9,81,92.2z"/>
<path fill="#1945FF" d="M75,111.6c0,0.3,0,0.7,0,1C75,112.2,75,111.9,75,111.6z"/>
<path fill="#1945FF" d="M75.1,110.6c0,0.2,0,0.4,0,0.6C75,111,75,110.8,75.1,110.6z"/>
<path fill="#1945FF" d="M81,92.2c-0.2,0.3-0.3,0.5-0.5,0.8C80.7,92.7,80.8,92.5,81,92.2z"/>
<path fill="#1945FF" d="M78,97.9c-0.1,0.2-0.2,0.5-0.3,0.8C77.8,98.4,77.9,98.1,78,97.9z"/>
<path fill="#1945FF" d="M75.2,108.7c0,0.2,0,0.4-0.1,0.6C75.2,109.1,75.2,108.9,75.2,108.7z"/>
<path fill="#1945FF" d="M80,93.8c-0.2,0.3-0.3,0.5-0.4,0.8C79.8,94.3,79.9,94,80,93.8z"/>
<path fill="#1945FF" d="M75.3,107.8c0,0.2-0.1,0.4-0.1,0.6C75.3,108.2,75.3,108,75.3,107.8z"/>
<path fill="#1945FF" d="M75.1,109.7c0,0.2,0,0.4-0.1,0.6C75.1,110.1,75.1,109.9,75.1,109.7z"/>
<path fill="#FF0079" d="M150,187.6v-37.5h-37.5c-20.7,0-37.5-16.8-37.5-37.5c0-0.3,0-0.7,0-1c0-0.1,0-0.2,0-0.3c0-0.2,0-0.4,0-0.6
	c0-0.1,0-0.2,0-0.3c0-0.2,0-0.4,0.1-0.6c0-0.1,0-0.2,0-0.3c0-0.2,0-0.4,0.1-0.6c0-0.1,0-0.2,0-0.3c0-0.2,0.1-0.4,0.1-0.6
	c0-0.1,0-0.2,0.1-0.3c0-0.2,0.1-0.4,0.1-0.6c0-0.1,0-0.2,0.1-0.3c0-0.2,0.1-0.4,0.1-0.7c0-0.1,0-0.2,0.1-0.3
	c0.1-0.2,0.1-0.4,0.1-0.7c0-0.1,0-0.2,0.1-0.3c0.1-0.2,0.1-0.4,0.2-0.7c0-0.1,0-0.2,0.1-0.2c0.1-0.2,0.1-0.4,0.2-0.7
	c0-0.1,0-0.1,0.1-0.2c0.1-0.2,0.1-0.5,0.2-0.7c0-0.1,0-0.1,0.1-0.2c0.1-0.2,0.1-0.5,0.2-0.7c0-0.1,0-0.1,0.1-0.2
	c0.1-0.2,0.2-0.5,0.2-0.7c0-0.1,0-0.1,0.1-0.2c0.1-0.2,0.2-0.5,0.3-0.7c0-0.1,0-0.1,0.1-0.1c0.1-0.2,0.2-0.5,0.3-0.7
	c0,0,0-0.1,0.1-0.1c0.1-0.3,0.2-0.5,0.3-0.8c0,0,0-0.1,0.1-0.1c0.1-0.3,0.2-0.5,0.3-0.8c0,0,0-0.1,0-0.1c0.1-0.3,0.2-0.5,0.4-0.8
	c0,0,0,0,0-0.1c0.1-0.3,0.3-0.5,0.4-0.8c0,0,0,0,0-0.1c0.1-0.3,0.3-0.5,0.4-0.8c0,0,0,0,0,0c0.1-0.3,0.3-0.5,0.4-0.8c0,0,0,0,0,0
	c0.2-0.3,0.3-0.5,0.5-0.8l0,0c0.2-0.3,0.3-0.5,0.5-0.8l0,0c1.5-2.3,3.2-4.4,5.1-6.3l0,0L161.1,11c6.8-6.8,16.2-11,26.5-11h-75
	C50.4,0,0,50.4,0,112.6s50.4,112.6,112.6,112.6h75C166.8,225.1,150,208.3,150,187.6z"/>
<path fill="#1945FF" d="M262.6,75h-37.5V37.5c0,20.7-16.8,37.5-37.5,37.5h-75c-10.3,0-19.6,4.1-26.4,10.9l0,0
	c-1.9,1.9-3.6,4-5.1,6.3l0,0c-0.2,0.3-0.3,0.5-0.5,0.8l0,0c-0.2,0.3-0.3,0.5-0.5,0.8c0,0,0,0,0,0c-0.2,0.3-0.3,0.5-0.4,0.8
	c0,0,0,0,0,0c-0.1,0.3-0.3,0.5-0.4,0.8c0,0,0,0,0,0.1c-0.1,0.3-0.3,0.5-0.4,0.8c0,0,0,0,0,0.1c-0.1,0.3-0.2,0.5-0.4,0.8
	c0,0,0,0.1,0,0.1c-0.1,0.3-0.2,0.5-0.3,0.8c0,0,0,0.1-0.1,0.1c-0.1,0.2-0.2,0.5-0.3,0.8c0,0,0,0.1-0.1,0.1c-0.1,0.2-0.2,0.5-0.3,0.7
	c0,0.1,0,0.1-0.1,0.1c-0.1,0.2-0.2,0.5-0.3,0.7c0,0.1,0,0.1-0.1,0.2c-0.1,0.2-0.2,0.5-0.2,0.7c0,0.1,0,0.1-0.1,0.2
	c-0.1,0.2-0.1,0.5-0.2,0.7c0,0.1,0,0.1-0.1,0.2c-0.1,0.2-0.1,0.5-0.2,0.7c0,0.1,0,0.1-0.1,0.2c-0.1,0.2-0.1,0.4-0.2,0.7
	c0,0.1,0,0.2-0.1,0.2c-0.1,0.2-0.1,0.4-0.2,0.7c0,0.1,0,0.2-0.1,0.3c-0.1,0.2-0.1,0.4-0.1,0.7c0,0.1,0,0.2-0.1,0.3
	c0,0.2-0.1,0.4-0.1,0.7c0,0.1,0,0.2-0.1,0.3c0,0.2-0.1,0.4-0.1,0.6c0,0.1,0,0.2-0.1,0.3c0,0.2-0.1,0.4-0.1,0.6c0,0.1,0,0.2,0,0.3
	c0,0.2,0,0.4-0.1,0.6c0,0.1,0,0.2,0,0.3c0,0.2,0,0.4-0.1,0.6c0,0.1,0,0.2,0,0.3c0,0.2,0,0.4,0,0.6c0,0.1,0,0.2,0,0.3
	c0,0.3,0,0.7,0,1c0,20.7,16.8,37.5,37.5,37.5H150h37.5c20.7,0,37.5,16.8,37.5,37.5V150h37.5c20.7,0,37.5-16.8,37.5-37.5
	S283.3,75,262.6,75z"/>
<path fill="#1945FF" d="M81,92.2L81,92.2L81,92.2z"/>
<path fill="#1945FF" d="M81,92.2L81,92.2L81,92.2z"/>
<path fill="#1945FF" d="M78,97.8C78,97.8,78,97.8,78,97.8C78,97.8,78,97.8,78,97.8z"/>
<path fill="#1945FF" d="M78,97.8C78,97.8,78,97.8,78,97.8C78,97.8,78,97.8,78,97.8z"/>
<path fill="#1945FF" d="M79.2,95.3C79.2,95.4,79.2,95.4,79.2,95.3C79.2,95.4,79.2,95.4,79.2,95.3z"/>
<path fill="#1945FF" d="M79.2,95.3C79.2,95.4,79.2,95.4,79.2,95.3C79.2,95.4,79.2,95.4,79.2,95.3z"/>
<path fill="#1945FF" d="M78.4,96.9C78.4,97,78.4,97,78.4,96.9C78.4,97,78.4,97,78.4,96.9z"/>
<path fill="#1945FF" d="M78.4,96.9C78.4,97,78.4,97,78.4,96.9C78.4,97,78.4,97,78.4,96.9z"/>
<path fill="#1945FF" d="M78.8,96.1C78.8,96.2,78.8,96.2,78.8,96.1C78.8,96.2,78.8,96.2,78.8,96.1z"/>
<path fill="#1945FF" d="M78.8,96.1C78.8,96.2,78.8,96.2,78.8,96.1C78.8,96.2,78.8,96.2,78.8,96.1z"/>
<path fill="#1945FF" d="M80.5,93L80.5,93L80.5,93z"/>
<path fill="#1945FF" d="M80.5,93L80.5,93L80.5,93z"/>
<path fill="#1945FF" d="M79.6,94.5C79.6,94.5,79.6,94.5,79.6,94.5C79.6,94.5,79.6,94.5,79.6,94.5z"/>
<path fill="#1945FF" d="M79.6,94.5C79.6,94.5,79.6,94.5,79.6,94.5C79.6,94.5,79.6,94.5,79.6,94.5z"/>
<path fill="#1945FF" d="M80.1,93.7C80.1,93.8,80,93.8,80.1,93.7C80,93.8,80.1,93.8,80.1,93.7z"/>
<path fill="#1945FF" d="M80.1,93.7C80.1,93.8,80,93.8,80.1,93.7C80,93.8,80.1,93.8,80.1,93.7z"/>
<path fill="#1945FF" d="M75.5,106.5c0,0.1,0,0.2-0.1,0.3C75.5,106.7,75.5,106.6,75.5,106.5z"/>
<path fill="#1945FF" d="M75.5,106.5c0,0.1,0,0.2-0.1,0.3C75.5,106.7,75.5,106.6,75.5,106.5z"/>
<path fill="#1945FF" d="M75.1,109.3c0,0.1,0,0.2,0,0.3C75.1,109.5,75.1,109.4,75.1,109.3z"/>
<path fill="#1945FF" d="M75.1,109.3c0,0.1,0,0.2,0,0.3C75.1,109.5,75.1,109.4,75.1,109.3z"/>
<path fill="#1945FF" d="M75.1,110.3c0,0.1,0,0.2,0,0.3C75.1,110.5,75.1,110.4,75.1,110.3z"/>
<path fill="#1945FF" d="M75.1,110.3c0,0.1,0,0.2,0,0.3C75.1,110.5,75.1,110.4,75.1,110.3z"/>
<path fill="#1945FF" d="M75.2,108.4c0,0.1,0,0.2,0,0.3C75.2,108.6,75.2,108.5,75.2,108.4z"/>
<path fill="#1945FF" d="M75.2,108.4c0,0.1,0,0.2,0,0.3C75.2,108.6,75.2,108.5,75.2,108.4z"/>
<path fill="#1945FF" d="M75.7,105.6c0,0.1,0,0.2-0.1,0.3C75.6,105.8,75.6,105.7,75.7,105.6z"/>
<path fill="#1945FF" d="M75.7,105.6c0,0.1,0,0.2-0.1,0.3C75.6,105.8,75.6,105.7,75.7,105.6z"/>
<path fill="#1945FF" d="M75.3,107.4c0,0.1,0,0.2-0.1,0.3C75.3,107.7,75.3,107.5,75.3,107.4z"/>
<path fill="#1945FF" d="M75.3,107.4c0,0.1,0,0.2-0.1,0.3C75.3,107.7,75.3,107.5,75.3,107.4z"/>
<path fill="#1945FF" d="M75,111.2c0,0.1,0,0.2,0,0.3C75,111.5,75,111.4,75,111.2z"/>
<path fill="#1945FF" d="M75,111.2c0,0.1,0,0.2,0,0.3C75,111.5,75,111.4,75,111.2z"/>
<path fill="#1945FF" d="M187.6,150.1H150v37.5c0,20.7,16.8,37.5,37.5,37.5s37.5-16.8,37.5-37.5S208.3,150.1,187.6,150.1z"/>
<path fill="#00008A" d="M187.6,150.1H150v37.5c0,20.7,16.8,37.5,37.5,37.5s37.5-16.8,37.5-37.5S208.3,150.1,187.6,150.1z"/>
<path fill="#1945FF" d="M86.1,85.9L86.1,85.9c6.8-6.7,16.1-10.8,26.4-10.8h75c20.7,0,37.5-16.8,37.5-37.5S208.3,0,187.6,0
	c-10.4,0-19.7,4.2-26.5,11L86.1,85.9z"/>
<path fill="#00008A" d="M86.1,85.9L86.1,85.9c6.8-6.7,16.1-10.8,26.4-10.8h75c20.7,0,37.5-16.8,37.5-37.5S208.3,0,187.6,0
	c-10.4,0-19.7,4.2-26.5,11L86.1,85.9z"/>
<path fill="#1945FF" d="M77.4,99.4c0,0.1,0,0.1-0.1,0.1C77.3,99.6,77.4,99.5,77.4,99.4z"/>
<path fill="#1945FF" d="M77.4,99.4c0,0.1,0,0.1-0.1,0.1C77.3,99.6,77.4,99.5,77.4,99.4z"/>
<path fill="#1945FF" d="M76.8,101.2c0,0.1,0,0.1-0.1,0.2C76.7,101.3,76.8,101.2,76.8,101.2z"/>
<path fill="#1945FF" d="M76.8,101.2c0,0.1,0,0.1-0.1,0.2C76.7,101.3,76.8,101.2,76.8,101.2z"/>
<path fill="#1945FF" d="M77,100.3c0,0.1,0,0.1-0.1,0.2C77,100.4,77,100.4,77,100.3z"/>
<path fill="#1945FF" d="M77,100.3c0,0.1,0,0.1-0.1,0.2C77,100.4,77,100.4,77,100.3z"/>
<path fill="#1945FF" d="M77.7,98.6c0,0,0,0.1-0.1,0.1C77.7,98.7,77.7,98.6,77.7,98.6z"/>
<path fill="#1945FF" d="M77.7,98.6c0,0,0,0.1-0.1,0.1C77.7,98.7,77.7,98.6,77.7,98.6z"/>
<path fill="#1945FF" d="M76.5,102.1c0,0.1,0,0.1-0.1,0.2C76.5,102.2,76.5,102.1,76.5,102.1z"/>
<path fill="#1945FF" d="M76.5,102.1c0,0.1,0,0.1-0.1,0.2C76.5,102.2,76.5,102.1,76.5,102.1z"/>
<path fill="#1945FF" d="M75.8,104.7c0,0.1,0,0.2-0.1,0.3C75.8,104.9,75.8,104.8,75.8,104.7z"/>
<path fill="#1945FF" d="M75.8,104.7c0,0.1,0,0.2-0.1,0.3C75.8,104.9,75.8,104.8,75.8,104.7z"/>
<path fill="#1945FF" d="M76,103.8c0,0.1,0,0.2-0.1,0.2C76,104,76,103.9,76,103.8z"/>
<path fill="#1945FF" d="M76,103.8c0,0.1,0,0.2-0.1,0.2C76,104,76,103.9,76,103.8z"/>
<path fill="#1945FF" d="M76.3,102.9c0,0.1,0,0.1-0.1,0.2C76.2,103.1,76.2,103,76.3,102.9z"/>
<path fill="#1945FF" d="M76.3,102.9c0,0.1,0,0.1-0.1,0.2C76.2,103.1,76.2,103,76.3,102.9z"/>
</svg>
