<?xml version="1.0" encoding="utf-8"?>
<!-- Generator: Adobe Illustrator 18.1.1, SVG Export Plug-In . SVG Version: 6.00 Build 0)  -->
<svg version="1.1" id="Layer_1" xmlns="http://www.w3.org/2000/svg" xmlns:xlink="http://www.w3.org/1999/xlink" x="0px" y="0px"
	 viewBox="0 0 1152 864" enable-background="new 0 0 1152 864" xml:space="preserve">
<path fill="#FF0079" d="M720,576H432c-79.5,0-144-64.5-144-144s64.5-144,144-144h288c79.5,0,144-64.5,144-144S799.5,0,720,0H432
	C193.4,0,0,193.4,0,432s193.4,432,432,432h288c79.5,0,144-64.5,144-144S799.5,576,720,576z"/>
<path fill="#1945FF" d="M1008,288H864V144C864,64.5,799.5,0,720,0c-39.8,0-75.8,16.1-101.8,42.2L330.7,329.6l0,0
	C304.3,355.8,288,392,288,432c0,79.5,64.5,144,144,144h144v144c0,79.5,64.5,144,144,144s144-64.5,144-144V576h144
	c79.5,0,144-64.5,144-144S1087.5,288,1008,288z"/>
</svg>
