<?xml version="1.0" encoding="utf-8"?>
<!-- Generator: Adobe Illustrator 18.1.1, SVG Export Plug-In . SVG Version: 6.00 Build 0)  -->
<svg version="1.1" id="Layer_1" xmlns="http://www.w3.org/2000/svg" xmlns:xlink="http://www.w3.org/1999/xlink" x="0px" y="0px"
	 viewBox="0 0 612 792" enable-background="new 0 0 612 792" xml:space="preserve">
<line fill="none" stroke="#EB008B" stroke-width="228" stroke-linecap="round" stroke-linejoin="round" stroke-miterlimit="10" x1="1584" y1="4761" x2="1224" y2="5121"/>
<line fill="none" stroke="#EB008B" stroke-width="228" stroke-linecap="round" stroke-linejoin="round" stroke-miterlimit="10" x1="1656" y1="5121" x2="1296" y2="5481"/>
<line fill="none" stroke="#EB008B" stroke-width="228" stroke-linecap="round" stroke-linejoin="round" stroke-miterlimit="10" x1="1224" y1="5121" x2="1656" y2="5121"/>
<g>
	<path fill="#FF0079" d="M4395,4824h-432c-63,0-114-51-114-114s51-114,114-114h432c63,0,114,51,114,114S4458,4824,4395,4824z"/>
</g>
<path fill="#FF0079" d="M2199,5007h275.2l165.4-165.4c44.5-44.5,44.5-116.7,0-161.2s-116.7-44.5-161.2,0l-360,360
	c-0.2,0.2-0.3,0.3-0.5,0.5C2138.6,5020,2167.3,5007,2199,5007z"/>
<path fill="#FF0079" d="M2631,5235h-275.2l-165.4,165.4c-44.5,44.5-44.5,116.7,0,161.2c22.3,22.3,51.4,33.4,80.6,33.4
	s58.4-11.1,80.6-33.4l360-360c0.2-0.2,0.3-0.3,0.5-0.5C2691.4,5222,2662.7,5235,2631,5235z"/>
<path fill="#1945FF" d="M2631,5007h-156.8l-194.6,194.6c-22.3,22.3-51.4,33.4-80.6,33.4h156.8l194.6-194.6
	C2572.6,5018.1,2601.8,5007,2631,5007z"/>
<path fill="#00008A" d="M2474.2,5007H2199c-31.7,0-60.4,13-81.1,33.9c-0.5,0.5-1,1-1.4,1.5c-0.4,0.4-0.8,0.8-1.1,1.2
	c-0.3,0.3-0.5,0.5-0.8,0.8c-0.5,0.5-0.9,1-1.3,1.5c-0.2,0.2-0.3,0.4-0.5,0.5c-0.5,0.6-1,1.2-1.5,1.8c-0.1,0.1-0.2,0.2-0.3,0.3
	c-0.5,0.6-1.1,1.3-1.6,2c0,0-0.1,0.1-0.1,0.1c-3.9,5-7.5,10.4-10.5,16c0,0,0,0,0,0c-0.4,0.8-0.8,1.5-1.2,2.3c0,0.1-0.1,0.2-0.1,0.2
	c-0.4,0.7-0.7,1.4-1.1,2.1c-0.1,0.2-0.2,0.3-0.2,0.5c-0.3,0.6-0.6,1.2-0.9,1.9c-0.1,0.3-0.2,0.6-0.4,0.8c-0.2,0.5-0.5,1.1-0.7,1.6
	c-0.2,0.4-0.3,0.8-0.5,1.2c-0.2,0.4-0.3,0.8-0.5,1.3c-0.2,0.5-0.4,1-0.6,1.5c-0.1,0.3-0.2,0.6-0.4,0.9c-0.2,0.6-0.5,1.2-0.7,1.9
	c-0.1,0.2-0.1,0.4-0.2,0.6c-0.3,0.7-0.5,1.4-0.7,2.2c0,0.1-0.1,0.2-0.1,0.3c-0.3,0.8-0.5,1.6-0.8,2.4c0,0,0,0.1,0,0.1
	c-1.6,5.3-2.7,10.6-3.5,16c0,0,0,0.1,0,0.1c-0.1,0.9-0.2,1.7-0.3,2.6c0,0.1,0,0.2,0,0.3c-0.1,0.8-0.2,1.6-0.3,2.4c0,0.2,0,0.4,0,0.5
	c-0.1,0.7-0.1,1.4-0.2,2.2c0,0.3,0,0.6-0.1,0.9c0,0.6-0.1,1.2-0.1,1.9c0,0.5,0,0.9-0.1,1.4c0,0.5,0,0.9,0,1.4c0,0.9,0,1.9,0,2.8
	s0,1.9,0,2.8c0,0.5,0,0.9,0,1.4c0,0.5,0,0.9,0.1,1.4c0,0.6,0.1,1.2,0.1,1.9c0,0.3,0,0.6,0.1,0.9c0.1,0.7,0.1,1.4,0.2,2.2
	c0,0.2,0,0.4,0,0.5c0.1,0.8,0.2,1.6,0.3,2.4c0,0.1,0,0.2,0,0.3c0.1,0.9,0.2,1.7,0.3,2.6c0,0,0,0.1,0,0.1c0.8,5.4,1.9,10.8,3.5,16
	c0,0,0,0.1,0,0.1c0.2,0.8,0.5,1.6,0.8,2.4c0,0.1,0.1,0.2,0.1,0.3c0.2,0.7,0.5,1.4,0.7,2.2c0.1,0.2,0.1,0.4,0.2,0.6
	c0.2,0.6,0.4,1.2,0.7,1.9c0.1,0.3,0.2,0.6,0.4,0.9c0.2,0.5,0.4,1,0.6,1.5c0.2,0.4,0.3,0.8,0.5,1.3c0.2,0.4,0.3,0.8,0.5,1.2
	c0.2,0.5,0.5,1.1,0.7,1.6c0.1,0.3,0.2,0.6,0.4,0.8c0.3,0.6,0.6,1.3,0.9,1.9c0.1,0.2,0.2,0.3,0.2,0.5c0.3,0.7,0.7,1.4,1.1,2.1
	c0,0.1,0.1,0.2,0.1,0.2c0.4,0.8,0.8,1.6,1.2,2.3c0,0,0,0,0,0c3.1,5.6,6.6,11,10.5,16c0,0,0.1,0.1,0.1,0.1c0.5,0.7,1,1.3,1.6,2
	c0.1,0.1,0.2,0.2,0.3,0.3c0.5,0.6,1,1.2,1.5,1.8c0.2,0.2,0.3,0.4,0.5,0.5c0.4,0.5,0.9,1,1.3,1.5c0.3,0.3,0.5,0.6,0.8,0.8
	c0.4,0.4,0.7,0.8,1.1,1.2c0.5,0.5,1,1,1.4,1.5c0.3,0.3,0.7,0.7,1,1c0.5,0.5,1,1,1.5,1.5c0.4,0.4,0.8,0.7,1.2,1.1
	c0.3,0.3,0.6,0.5,0.8,0.8c0.5,0.5,1,0.9,1.5,1.3c0.2,0.2,0.4,0.3,0.5,0.5c0.6,0.5,1.2,1,1.8,1.5c0.1,0.1,0.2,0.2,0.3,0.3
	c0.6,0.5,1.3,1.1,2,1.6c0,0,0.1,0.1,0.1,0.1c5,3.9,10.4,7.5,16,10.5c0,0,0,0,0,0c0.8,0.4,1.5,0.8,2.3,1.2c0.1,0,0.2,0.1,0.3,0.1
	c0.7,0.4,1.4,0.7,2.1,1.1c0.2,0.1,0.4,0.2,0.5,0.3c0.6,0.3,1.2,0.6,1.9,0.9c0.3,0.1,0.6,0.3,0.8,0.4c0.5,0.2,1,0.5,1.6,0.7
	c0.4,0.2,0.8,0.3,1.2,0.5c0.4,0.2,0.8,0.3,1.2,0.5c0.5,0.2,1,0.4,1.5,0.6c0.3,0.1,0.6,0.2,0.9,0.3c0.6,0.2,1.2,0.5,1.9,0.7
	c0.2,0.1,0.4,0.1,0.6,0.2c0.7,0.3,1.5,0.5,2.2,0.7c0.1,0,0.2,0.1,0.3,0.1c0.8,0.3,1.6,0.5,2.4,0.8c0,0,0.1,0,0.1,0
	c5.3,1.6,10.6,2.7,16,3.5c0,0,0,0,0.1,0c0.9,0.1,1.7,0.2,2.6,0.3c0.1,0,0.2,0,0.3,0c0.8,0.1,1.6,0.2,2.4,0.3c0.2,0,0.4,0,0.5,0
	c0.7,0.1,1.5,0.1,2.2,0.2c0.3,0,0.6,0,0.9,0.1c0.6,0,1.2,0.1,1.9,0.1c0.5,0,0.9,0,1.4,0.1c0.5,0,0.9,0,1.4,0c0.9,0,1.9,0,2.8,0
	c29.2,0,58.4-11.1,80.6-33.4L2474.2,5007z"/>
<path fill="#00008A" d="M2712.1,5201.1c0.5-0.5,1-1,1.4-1.5c0.4-0.4,0.8-0.8,1.1-1.2c0.3-0.3,0.5-0.5,0.8-0.8c0.5-0.5,0.9-1,1.3-1.5
	c0.2-0.2,0.3-0.4,0.5-0.5c0.5-0.6,1-1.2,1.5-1.8c0.1-0.1,0.2-0.2,0.3-0.3c0.5-0.6,1.1-1.3,1.6-2c0,0,0.1-0.1,0.1-0.1
	c3.9-5,7.5-10.4,10.5-16c0,0,0,0,0,0c0.4-0.8,0.8-1.5,1.2-2.3c0-0.1,0.1-0.2,0.1-0.2c0.4-0.7,0.7-1.4,1.1-2.1
	c0.1-0.2,0.2-0.3,0.2-0.5c0.3-0.6,0.6-1.2,0.9-1.9c0.1-0.3,0.2-0.6,0.4-0.8c0.2-0.5,0.5-1.1,0.7-1.6c0.2-0.4,0.3-0.8,0.5-1.2
	c0.2-0.4,0.3-0.8,0.5-1.3c0.2-0.5,0.4-1,0.6-1.5c0.1-0.3,0.2-0.6,0.4-0.9c0.2-0.6,0.5-1.2,0.7-1.9c0.1-0.2,0.1-0.4,0.2-0.6
	c0.3-0.7,0.5-1.4,0.7-2.2c0-0.1,0.1-0.2,0.1-0.3c0.3-0.8,0.5-1.6,0.8-2.4c0,0,0-0.1,0-0.1c1.6-5.3,2.7-10.6,3.5-16c0,0,0-0.1,0-0.1
	c0.1-0.9,0.2-1.7,0.3-2.6c0-0.1,0-0.2,0-0.3c0.1-0.8,0.2-1.6,0.3-2.4c0-0.2,0-0.4,0-0.5c0.1-0.7,0.1-1.4,0.2-2.2
	c0-0.3,0-0.6,0.1-0.9c0-0.6,0.1-1.2,0.1-1.9c0-0.5,0-0.9,0.1-1.4c0-0.5,0-0.9,0-1.4c0-0.9,0-1.9,0-2.8s0-1.9,0-2.8
	c0-0.5,0-0.9,0-1.4c0-0.5,0-0.9-0.1-1.4c0-0.6-0.1-1.2-0.1-1.9c0-0.3,0-0.6-0.1-0.9c-0.1-0.7-0.1-1.4-0.2-2.2c0-0.2,0-0.4,0-0.5
	c-0.1-0.8-0.2-1.6-0.3-2.4c0-0.1,0-0.2,0-0.3c-0.1-0.9-0.2-1.7-0.3-2.6c0,0,0-0.1,0-0.1c-0.8-5.4-1.9-10.8-3.5-16c0,0,0-0.1,0-0.1
	c-0.2-0.8-0.5-1.6-0.8-2.4c0-0.1-0.1-0.2-0.1-0.3c-0.2-0.7-0.5-1.4-0.7-2.2c-0.1-0.2-0.1-0.4-0.2-0.6c-0.2-0.6-0.4-1.2-0.7-1.9
	c-0.1-0.3-0.2-0.6-0.4-0.9c-0.2-0.5-0.4-1-0.6-1.5c-0.2-0.4-0.3-0.8-0.5-1.3c-0.2-0.4-0.3-0.8-0.5-1.2c-0.2-0.5-0.5-1.1-0.7-1.6
	c-0.1-0.3-0.2-0.6-0.4-0.8c-0.3-0.6-0.6-1.3-0.9-1.9c-0.1-0.2-0.2-0.3-0.2-0.5c-0.3-0.7-0.7-1.4-1.1-2.1c0-0.1-0.1-0.2-0.1-0.2
	c-0.4-0.8-0.8-1.6-1.2-2.3c0,0,0,0,0,0c-3.1-5.6-6.6-11-10.5-16c0,0-0.1-0.1-0.1-0.1c-0.5-0.7-1-1.3-1.6-2c-0.1-0.1-0.2-0.2-0.3-0.3
	c-0.5-0.6-1-1.2-1.5-1.8c-0.2-0.2-0.3-0.4-0.5-0.5c-0.4-0.5-0.9-1-1.3-1.5c-0.3-0.3-0.5-0.6-0.8-0.8c-0.4-0.4-0.7-0.8-1.1-1.2
	c-0.5-0.5-1-1-1.4-1.5c-0.3-0.3-0.7-0.7-1-1c-0.5-0.5-1-1-1.5-1.4c-0.4-0.4-0.8-0.8-1.2-1.1c-0.3-0.3-0.5-0.5-0.8-0.8
	c-0.5-0.5-1-0.9-1.5-1.3c-0.2-0.2-0.4-0.3-0.5-0.5c-0.6-0.5-1.2-1-1.8-1.5c-0.1-0.1-0.2-0.2-0.3-0.3c-0.7-0.5-1.3-1.1-2-1.6
	c0,0-0.1-0.1-0.1-0.1c-5-3.9-10.4-7.5-16-10.5c0,0,0,0,0,0c-0.8-0.4-1.5-0.8-2.3-1.2c-0.1,0-0.2-0.1-0.2-0.1
	c-0.7-0.4-1.4-0.7-2.1-1.1c-0.2-0.1-0.3-0.2-0.5-0.2c-0.6-0.3-1.2-0.6-1.9-0.9c-0.3-0.1-0.6-0.2-0.8-0.4c-0.5-0.2-1.1-0.5-1.6-0.7
	c-0.4-0.2-0.8-0.3-1.2-0.5c-0.4-0.2-0.8-0.3-1.3-0.5c-0.5-0.2-1-0.4-1.5-0.6c-0.3-0.1-0.6-0.2-0.9-0.4c-0.6-0.2-1.2-0.5-1.9-0.7
	c-0.2-0.1-0.4-0.1-0.6-0.2c-0.7-0.2-1.4-0.5-2.2-0.7c-0.1,0-0.2-0.1-0.3-0.1c-0.8-0.3-1.6-0.5-2.4-0.8c0,0-0.1,0-0.1,0
	c-5.3-1.6-10.6-2.7-16-3.5c0,0-0.1,0-0.1,0c-0.9-0.1-1.7-0.2-2.6-0.3c-0.1,0-0.2,0-0.3,0c-0.8-0.1-1.6-0.2-2.4-0.3
	c-0.2,0-0.4,0-0.5,0c-0.7-0.1-1.4-0.1-2.2-0.2c-0.3,0-0.6,0-0.9-0.1c-0.6,0-1.2-0.1-1.9-0.1c-0.5,0-0.9,0-1.4-0.1
	c-0.5,0-0.9,0-1.4,0c-0.9,0-1.9,0-2.8,0c-29.2,0-58.4,11.1-80.6,33.4L2355.8,5235H2631C2662.7,5235,2691.4,5222,2712.1,5201.1z"/>
<path fill="none" stroke="#EB008B" stroke-width="228" stroke-linecap="round" stroke-linejoin="round" stroke-miterlimit="10" d="
	M1152,6129c0-159.1,128.9-288,288-288s288,128.9,288,288"/>
<path fill="none" stroke="#EB008B" stroke-width="228" stroke-linecap="round" stroke-linejoin="round" stroke-miterlimit="10" d="
	M1152,6129c0,159.1,128.9,288,288,288s288-128.9,288-288"/>
<g>
	<path fill="none" d="M2643,6129c0-95.9-78.1-174-174-174s-174,78.1-174,174s78.1,174,174,174S2643,6224.9,2643,6129z"/>
	<path fill="#FF0079" d="M2583,5841c0,63-51,114-114,114c95.9,0,174,78.1,174,174s-78.1,174-174,174c63,0,114,51,114,114
		s-51,114-114,114c54.2,0,106.9-10.6,156.5-31.6c47.9-20.3,90.9-49.2,127.7-86.1s65.9-79.9,86.1-127.7
		c21-49.6,31.6-102.3,31.6-156.5s-10.6-106.9-31.6-156.5c-20.3-47.9-49.2-90.9-86.1-127.7s-79.9-65.9-127.7-86.1
		c-49.6-21-102.3-31.6-156.5-31.6C2532,5727,2583,5778,2583,5841z"/>
	<path fill="#1945FF" d="M2355,6417c0-63,51-114,114-114c-95.9,0-174-78.1-174-174s78.1-174,174-174c-63,0-114-51-114-114
		s51-114,114-114c-54.2,0-106.9,10.6-156.5,31.6c-47.9,20.3-90.9,49.2-127.7,86.1s-65.9,79.9-86.1,127.7
		c-21,49.6-31.6,102.3-31.6,156.5s10.6,106.9,31.6,156.5c20.3,47.9,49.2,90.9,86.1,127.7s79.9,65.9,127.7,86.1
		c49.6,21,102.3,31.6,156.5,31.6C2406,6531,2355,6480,2355,6417z"/>
	<circle fill="#00008A" cx="2469" cy="6417" r="114"/>
	<circle fill="#00008A" cx="2469" cy="5841" r="114"/>
</g>
<line fill="none" stroke="#EB008B" stroke-width="228" stroke-linecap="round" stroke-linejoin="round" stroke-miterlimit="10" x1="1440" y1="7056" x2="1643.6" y2="7259.6"/>
<line fill="none" stroke="#EB008B" stroke-width="228" stroke-linecap="round" stroke-linejoin="round" stroke-miterlimit="10" x1="1236.4" y1="6852.4" x2="1440" y2="7056"/>
<line fill="none" stroke="#EB008B" stroke-width="228" stroke-linecap="round" stroke-linejoin="round" stroke-miterlimit="10" x1="1440" y1="7056" x2="1643.6" y2="6852.4"/>
<line fill="none" stroke="#EB008B" stroke-width="228" stroke-linecap="round" stroke-linejoin="round" stroke-miterlimit="10" x1="1236.4" y1="7259.6" x2="1440" y2="7056"/>
<line fill="none" stroke="#EB008B" stroke-width="228" stroke-linecap="round" stroke-linejoin="round" stroke-miterlimit="10" x1="1440" y1="7056" x2="1728" y2="7056"/>
<line fill="none" stroke="#EB008B" stroke-width="228" stroke-linecap="round" stroke-linejoin="round" stroke-miterlimit="10" x1="1152" y1="7056" x2="1440" y2="7056"/>
<line fill="none" stroke="#EB008B" stroke-width="228" stroke-linecap="round" stroke-linejoin="round" stroke-miterlimit="10" x1="1440" y1="7056" x2="1440" y2="6768"/>
<line fill="none" stroke="#EB008B" stroke-width="228" stroke-linecap="round" stroke-linejoin="round" stroke-miterlimit="10" x1="1440" y1="7344" x2="1440" y2="7056"/>
<g>
	<path fill="#1945FF" d="M2601,7331.2l9,9c22.3,22.3,51.4,33.4,80.6,33.4s58.4-11.1,80.6-33.4c44.5-44.5,44.5-116.7,0-161.2l-9-9
		H2601V7331.2z"/>
	<path fill="#1945FF" d="M2373,6780.8l-9-9c-44.5-44.5-116.7-44.5-161.2,0s-44.5,116.7,0,161.2l9,9H2373V6780.8z"/>
	<path fill="#1945FF" d="M2762.2,6942l9-9c44.5-44.5,44.5-116.7,0-161.2s-116.7-44.5-161.2,0l-9,9V6942H2762.2z"/>
	<path fill="#1945FF" d="M2211.8,7170l-9,9c-44.5,44.5-44.5,116.7,0,161.2c22.3,22.3,51.4,33.4,80.6,33.4s58.4-11.1,80.6-33.4l9-9
		V7170H2211.8z"/>
	<path fill="#FF0079" d="M2889,7056c0-63-51-114-114-114h-12.8l-114,114l114,114h12.8C2838,7170,2889,7119,2889,7056z"/>
	<polygon fill="#00008A" points="2601,7103.2 2601,7170 2762.2,7170 2648.2,7056 	"/>
	<polygon fill="#00008A" points="2601,7008.8 2648.2,7056 2762.2,6942 2601,6942 	"/>
	<polygon fill="#00008A" points="2601,7056 2601,7103.2 2648.2,7056 2601,7008.8 	"/>
	<path fill="#FF0079" d="M2211.8,6942H2199c-63,0-114,51-114,114s51,114,114,114h12.8l114-114L2211.8,6942z"/>
	<polygon fill="#00008A" points="2373,7008.8 2373,6942 2211.8,6942 2325.8,7056 	"/>
	<polygon fill="#00008A" points="2373,7103.2 2325.8,7056 2211.8,7170 2373,7170 	"/>
	<polygon fill="#00008A" points="2373,7008.8 2325.8,7056 2373,7103.2 2373,7056 	"/>
	<path fill="#FF0079" d="M2601,6780.8V6768c0-63-51-114-114-114s-114,51-114,114v12.8l114,114L2601,6780.8z"/>
	<polygon fill="#00008A" points="2439.8,6942 2487,6894.8 2373,6780.8 2373,6942 	"/>
	<polygon fill="#00008A" points="2534.2,6942 2601,6942 2601,6780.8 2487,6894.8 	"/>
	<polygon fill="#00008A" points="2534.2,6942 2487,6894.8 2439.8,6942 2487,6942 	"/>
	<polygon fill="#00008A" points="2601,7008.8 2601,6942 2534.2,6942 2567.6,6975.4 	"/>
	<path fill="#00008A" d="M2568.1,6975.9c0.5,0.5,1,1,1.4,1.5c0.4,0.4,0.8,0.8,1.1,1.2c0.3,0.3,0.5,0.5,0.8,0.8
		c0.5,0.5,0.9,1,1.3,1.5c0.2,0.2,0.3,0.4,0.5,0.5c0.5,0.6,1,1.2,1.5,1.8c0.1,0.1,0.2,0.2,0.3,0.3c0.5,0.7,1.1,1.3,1.6,2
		c0,0,0.1,0.1,0.1,0.1c4,5.1,7.5,10.4,10.5,16c0,0,0,0,0,0c0.4,0.8,0.8,1.5,1.2,2.3c0,0.1,0.1,0.2,0.1,0.2c0.4,0.7,0.7,1.4,1.1,2.1
		c0.1,0.2,0.2,0.3,0.2,0.5c0.3,0.6,0.6,1.2,0.9,1.9c0.1,0.3,0.2,0.6,0.4,0.8c0.2,0.5,0.5,1.1,0.7,1.6c0.2,0.4,0.3,0.8,0.5,1.2
		c0.2,0.4,0.3,0.8,0.5,1.3c0.2,0.5,0.4,1,0.6,1.5c0.1,0.3,0.2,0.6,0.4,0.9c0.2,0.6,0.5,1.2,0.7,1.9c0.1,0.2,0.1,0.4,0.2,0.6
		c0.3,0.7,0.5,1.4,0.7,2.2c0,0.1,0.1,0.2,0.1,0.3c0.3,0.8,0.5,1.6,0.8,2.4c0,0,0,0.1,0,0.1c1.5,5.2,2.7,10.5,3.5,16c0,0,0,0.1,0,0.1
		c0.1,0.9,0.2,1.7,0.3,2.6c0,0.1,0,0.2,0,0.3c0.1,0.8,0.2,1.6,0.3,2.4c0,0.2,0,0.4,0,0.5c0.1,0.7,0.1,1.4,0.2,2.2
		c0,0.3,0,0.6,0.1,0.9c0,0.6,0.1,1.2,0.1,1.9c0,0.5,0,0.9,0.1,1.4c0,0.5,0,0.9,0,1.4c0,0.9,0,1.9,0,2.8v-47.2l-33.4-33.4
		C2567.8,6975.6,2567.9,6975.7,2568.1,6975.9z"/>
	<path fill="#00008A" d="M2489.8,6942c0.5,0,0.9,0,1.4,0c0.5,0,0.9,0,1.4,0.1c0.6,0,1.2,0.1,1.9,0.1c0.3,0,0.6,0,0.9,0.1
		c0.7,0.1,1.5,0.1,2.2,0.2c0.2,0,0.4,0,0.5,0c0.8,0.1,1.6,0.2,2.4,0.3c0.1,0,0.2,0,0.3,0c0.9,0.1,1.7,0.2,2.6,0.3c0,0,0.1,0,0.1,0
		c5.5,0.8,10.8,2,16,3.5c0,0,0.1,0,0.1,0c0.8,0.2,1.6,0.5,2.4,0.8c0.1,0,0.2,0.1,0.3,0.1c0.7,0.2,1.4,0.5,2.2,0.7
		c0.2,0.1,0.4,0.1,0.6,0.2c0.6,0.2,1.2,0.4,1.9,0.7c0.3,0.1,0.6,0.2,0.9,0.4c0.5,0.2,1,0.4,1.5,0.6c0.4,0.2,0.8,0.3,1.3,0.5
		c0.4,0.2,0.8,0.3,1.2,0.5c0.5,0.2,1.1,0.5,1.6,0.7c0.3,0.1,0.6,0.2,0.8,0.4c0.6,0.3,1.3,0.6,1.9,0.9c0.2,0.1,0.3,0.2,0.5,0.2
		c0.7,0.3,1.4,0.7,2.1,1.1c0.1,0,0.2,0.1,0.2,0.1c0.8,0.4,1.6,0.8,2.3,1.2c0,0,0,0,0,0c5.6,3,10.9,6.5,16,10.5c0,0,0.1,0.1,0.1,0.1
		c0.7,0.5,1.3,1,2,1.6c0.1,0.1,0.2,0.2,0.3,0.3c0.6,0.5,1.2,1,1.8,1.5c0.2,0.2,0.4,0.3,0.5,0.5c0.5,0.4,1,0.9,1.5,1.3
		c0.3,0.3,0.6,0.5,0.8,0.8c0.4,0.4,0.8,0.7,1.2,1.1c0.5,0.5,1,1,1.5,1.4c0.2,0.2,0.3,0.3,0.5,0.5l-33.4-33.4H2487
		C2487.9,6942,2488.9,6942,2489.8,6942z"/>
	<path fill="#EB008B" d="M2592.3,7012.3c0.2,0.4,0.3,0.8,0.5,1.3C2592.7,7013.2,2592.5,7012.8,2592.3,7012.3z"/>
	<path fill="#EB008B" d="M2600.5,7045c0,0.2,0,0.4,0,0.5C2600.5,7045.3,2600.5,7045.1,2600.5,7045z"/>
	<path fill="#EB008B" d="M2541.4,6955.8c5.6,3.1,11,6.6,16,10.5C2552.3,6962.3,2546.9,6958.8,2541.4,6955.8z"/>
	<path fill="#EB008B" d="M2600.2,7042.3c0,0.1,0,0.2,0,0.3C2600.2,7042.5,2600.2,7042.4,2600.2,7042.3z"/>
	<path fill="#EB008B" d="M2594.5,7017.9c0.1,0.2,0.1,0.4,0.2,0.6C2594.6,7018.3,2594.5,7018.1,2594.5,7017.9z"/>
	<path fill="#EB008B" d="M2593.4,7015.1c0.1,0.3,0.2,0.6,0.4,0.9C2593.7,7015.7,2593.6,7015.4,2593.4,7015.1z"/>
	<path fill="#EB008B" d="M2595.4,7020.7c0,0.1,0.1,0.2,0.1,0.3C2595.5,7020.9,2595.5,7020.8,2595.4,7020.7z"/>
	<path fill="#EB008B" d="M2536.6,6953.3c0.7,0.3,1.4,0.7,2.1,1.1C2538.1,6954,2537.3,6953.7,2536.6,6953.3z"/>
	<path fill="#EB008B" d="M2596.3,7023.5c0,0,0,0.1,0,0.1C2596.3,7023.6,2596.3,7023.5,2596.3,7023.5z"/>
	<path fill="#EB008B" d="M2539,6954.5c0.8,0.4,1.6,0.8,2.3,1.2C2540.6,6955.3,2539.8,6954.9,2539,6954.5z"/>
	<path fill="#EB008B" d="M2599.8,7039.6C2599.8,7039.6,2599.8,7039.7,2599.8,7039.6C2599.8,7039.7,2599.8,7039.6,2599.8,7039.6z"/>
	<path fill="#EB008B" d="M2534.2,6952.2c0.6,0.3,1.3,0.6,1.9,0.9C2535.5,6952.8,2534.9,6952.5,2534.2,6952.2z"/>
	<path fill="#EB008B" d="M2573.3,6981.5c0.5,0.6,1,1.2,1.5,1.8C2574.3,6982.6,2573.8,6982.1,2573.3,6981.5z"/>
	<path fill="#EB008B" d="M2571.5,6979.4c0.5,0.5,0.9,1,1.3,1.5C2572.4,6980.4,2571.9,6979.9,2571.5,6979.4z"/>
	<path fill="#EB008B" d="M2575,6983.6c0.5,0.6,1.1,1.3,1.6,2C2576.1,6984.9,2575.6,6984.2,2575,6983.6z"/>
	<path fill="#EB008B" d="M2576.7,6985.7c3.9,5,7.5,10.4,10.5,16C2584.2,6996.1,2580.7,6990.7,2576.7,6985.7z"/>
	<path fill="#EB008B" d="M2564.4,6972.3c0.4,0.4,0.8,0.7,1.2,1.1C2565.2,6973.1,2564.8,6972.7,2564.4,6972.3z"/>
	<path fill="#EB008B" d="M2569.6,6977.4c0.4,0.4,0.8,0.8,1.1,1.2C2570.3,6978.2,2569.9,6977.8,2569.6,6977.4z"/>
	<path fill="#EB008B" d="M2591.1,7009.6c0.2,0.5,0.5,1.1,0.7,1.6C2591.6,7010.6,2591.4,7010.1,2591.1,7009.6z"/>
	<path fill="#EB008B" d="M2589.9,7006.9c0.3,0.6,0.6,1.2,0.9,1.9C2590.5,7008.1,2590.2,7007.5,2589.9,7006.9z"/>
	<path fill="#EB008B" d="M2557.5,6966.4c0.7,0.5,1.3,1,2,1.6C2558.8,6967.4,2558.1,6966.9,2557.5,6966.4z"/>
	<path fill="#EB008B" d="M2559.8,6968.2c0.6,0.5,1.2,1,1.8,1.5C2560.9,6969.2,2560.4,6968.7,2559.8,6968.2z"/>
	<path fill="#EB008B" d="M2587.2,7001.7c0.4,0.8,0.8,1.5,1.2,2.3C2588.1,7003.2,2587.7,7002.4,2587.2,7001.7z"/>
	<path fill="#EB008B" d="M2588.6,7004.2c0.4,0.7,0.7,1.4,1.1,2.1C2589.3,7005.7,2589,7004.9,2588.6,7004.2z"/>
	<path fill="#EB008B" d="M2562.1,6970.2c0.5,0.4,1,0.9,1.5,1.3C2563.1,6971.1,2562.6,6970.6,2562.1,6970.2z"/>
	<path fill="#EB008B" d="M2601,7056c0-0.9,0-1.9,0-2.8C2601,7054.1,2601,7055.1,2601,7056z"/>
	<path fill="#EB008B" d="M2524.5,6948.3c0.2,0.1,0.4,0.1,0.6,0.2C2524.9,6948.5,2524.7,6948.4,2524.5,6948.3z"/>
	<path fill="#EB008B" d="M2491.2,6942.1c0.5,0,0.9,0,1.4,0.1C2492.1,6942.1,2491.7,6942.1,2491.2,6942.1z"/>
	<path fill="#EB008B" d="M2521.9,6947.5c0.1,0,0.2,0.1,0.3,0.1C2522.2,6947.5,2522.1,6947.5,2521.9,6947.5z"/>
	<path fill="#EB008B" d="M2526.9,6949.2c0.3,0.1,0.6,0.2,0.9,0.4C2527.6,6949.4,2527.3,6949.3,2526.9,6949.2z"/>
	<path fill="#EB008B" d="M2503.3,6943.2C2503.3,6943.2,2503.4,6943.2,2503.3,6943.2C2503.4,6943.2,2503.3,6943.2,2503.3,6943.2z"/>
	<path fill="#EB008B" d="M2494.5,6942.2c0.3,0,0.6,0,0.9,0.1C2495,6942.3,2494.7,6942.3,2494.5,6942.2z"/>
	<path fill="#EB008B" d="M2519.4,6946.7c0,0,0.1,0,0.1,0C2519.5,6946.7,2519.4,6946.7,2519.4,6946.7z"/>
	<path fill="#EB008B" d="M2500.5,6942.8c0.1,0,0.2,0,0.3,0C2500.6,6942.8,2500.5,6942.8,2500.5,6942.8z"/>
	<path fill="#EB008B" d="M2497.5,6942.5c0.2,0,0.4,0,0.5,0C2497.9,6942.5,2497.7,6942.5,2497.5,6942.5z"/>
	<path fill="#EB008B" d="M2487,6942c0.9,0,1.9,0,2.8,0C2488.9,6942,2487.9,6942,2487,6942z"/>
	<path fill="#EB008B" d="M2529.4,6950.2c0.4,0.2,0.8,0.3,1.3,0.5C2530.2,6950.5,2529.8,6950.3,2529.4,6950.2z"/>
	<path fill="#EB008B" d="M2600.9,7050.4c0,0.5,0,0.9,0.1,1.4C2600.9,7051.3,2600.9,7050.9,2600.9,7050.4z"/>
	<path fill="#EB008B" d="M2531.8,6951.2c0.5,0.2,1.1,0.5,1.6,0.7C2532.9,6951.6,2532.4,6951.4,2531.8,6951.2z"/>
	<path fill="#EB008B" d="M2600.7,7047.7c0,0.3,0,0.6,0.1,0.9C2600.7,7048.3,2600.7,7048,2600.7,7047.7z"/>
	<path fill="#EB008B" d="M2568.1,6975.9c-0.2-0.2-0.3-0.3-0.5-0.5s-0.3-0.3-0.5-0.5C2567.4,6975.2,2567.8,6975.6,2568.1,6975.9z"/>
	<polygon fill="#00008A" points="2439.8,6942 2373,6942 2373,7008.8 2406.4,6975.4 	"/>
	<path fill="#00008A" d="M2406.9,6974.9c0.5-0.5,1-1,1.5-1.4c0.4-0.4,0.8-0.8,1.2-1.1c0.3-0.3,0.5-0.5,0.8-0.8
		c0.5-0.5,1-0.9,1.5-1.3c0.2-0.2,0.4-0.3,0.5-0.5c0.6-0.5,1.2-1,1.8-1.5c0.1-0.1,0.2-0.2,0.3-0.3c0.7-0.5,1.3-1.1,2-1.6
		c0,0,0.1-0.1,0.1-0.1c5.1-4,10.4-7.5,16-10.5c0,0,0,0,0,0c0.8-0.4,1.5-0.8,2.3-1.2c0.1,0,0.2-0.1,0.2-0.1c0.7-0.4,1.4-0.7,2.1-1.1
		c0.2-0.1,0.3-0.2,0.5-0.2c0.6-0.3,1.2-0.6,1.9-0.9c0.3-0.1,0.6-0.2,0.8-0.4c0.5-0.2,1.1-0.5,1.6-0.7c0.4-0.2,0.8-0.3,1.2-0.5
		c0.4-0.2,0.8-0.3,1.3-0.5c0.5-0.2,1-0.4,1.5-0.6c0.3-0.1,0.6-0.2,0.9-0.4c0.6-0.2,1.2-0.5,1.9-0.7c0.2-0.1,0.4-0.1,0.6-0.2
		c0.7-0.2,1.4-0.5,2.2-0.7c0.1,0,0.2-0.1,0.3-0.1c0.8-0.3,1.6-0.5,2.4-0.8c0,0,0.1,0,0.1,0c5.2-1.5,10.5-2.7,16-3.5c0,0,0.1,0,0.1,0
		c0.9-0.1,1.7-0.2,2.6-0.3c0.1,0,0.2,0,0.3,0c0.8-0.1,1.6-0.2,2.4-0.3c0.2,0,0.4,0,0.5,0c0.7-0.1,1.4-0.1,2.2-0.2
		c0.3,0,0.6,0,0.9-0.1c0.6,0,1.2-0.1,1.9-0.1c0.5,0,0.9,0,1.4-0.1c0.5,0,0.9,0,1.4,0c0.9,0,1.9,0,2.8,0h-47.2l-33.4,33.4
		C2406.6,6975.2,2406.7,6975.1,2406.9,6974.9z"/>
	<path fill="#00008A" d="M2373,7053.2c0-0.5,0-0.9,0-1.4c0-0.5,0-0.9,0.1-1.4c0-0.6,0.1-1.2,0.1-1.9c0-0.3,0-0.6,0.1-0.9
		c0.1-0.7,0.1-1.5,0.2-2.2c0-0.2,0-0.4,0-0.5c0.1-0.8,0.2-1.6,0.3-2.4c0-0.1,0-0.2,0-0.3c0.1-0.9,0.2-1.7,0.3-2.6c0,0,0-0.1,0-0.1
		c0.8-5.5,2-10.8,3.5-16c0,0,0-0.1,0-0.1c0.2-0.8,0.5-1.6,0.8-2.4c0-0.1,0.1-0.2,0.1-0.3c0.2-0.7,0.5-1.4,0.7-2.2
		c0.1-0.2,0.1-0.4,0.2-0.6c0.2-0.6,0.4-1.2,0.7-1.9c0.1-0.3,0.2-0.6,0.4-0.9c0.2-0.5,0.4-1,0.6-1.5c0.2-0.4,0.3-0.8,0.5-1.3
		c0.2-0.4,0.3-0.8,0.5-1.2c0.2-0.5,0.5-1.1,0.7-1.6c0.1-0.3,0.2-0.6,0.4-0.8c0.3-0.6,0.6-1.3,0.9-1.9c0.1-0.2,0.2-0.3,0.2-0.5
		c0.3-0.7,0.7-1.4,1.1-2.1c0-0.1,0.1-0.2,0.1-0.2c0.4-0.8,0.8-1.6,1.2-2.3c0,0,0,0,0,0c3-5.6,6.5-10.9,10.5-16c0,0,0.1-0.1,0.1-0.1
		c0.5-0.7,1-1.3,1.6-2c0.1-0.1,0.2-0.2,0.3-0.3c0.5-0.6,1-1.2,1.5-1.8c0.2-0.2,0.3-0.4,0.5-0.5c0.4-0.5,0.9-1,1.3-1.5
		c0.3-0.3,0.5-0.6,0.8-0.8c0.4-0.4,0.7-0.8,1.1-1.2c0.5-0.5,1-1,1.4-1.5c0.2-0.2,0.3-0.3,0.5-0.5l-33.4,33.4v47.2
		C2373,7055.1,2373,7054.1,2373,7053.2z"/>
	<path fill="#EB008B" d="M2373.2,7048.5c0-0.3,0-0.6,0.1-0.9C2373.3,7048,2373.3,7048.3,2373.2,7048.5z"/>
	<path fill="#EB008B" d="M2476,6942.5c0.2,0,0.4,0,0.5,0C2476.3,6942.5,2476.1,6942.5,2476,6942.5z"/>
	<path fill="#EB008B" d="M2379.3,7018.5c0.1-0.2,0.1-0.4,0.2-0.6C2379.5,7018.1,2379.4,7018.3,2379.3,7018.5z"/>
	<path fill="#EB008B" d="M2412.5,6969.7c0.6-0.5,1.2-1,1.8-1.5C2413.6,6968.7,2413.1,6969.2,2412.5,6969.7z"/>
	<path fill="#EB008B" d="M2373.1,7051.8c0-0.5,0-0.9,0.1-1.4C2373.1,7050.9,2373.1,7051.3,2373.1,7051.8z"/>
	<path fill="#EB008B" d="M2378.5,7021.1c0-0.1,0.1-0.2,0.1-0.3C2378.5,7020.8,2378.5,7020.9,2378.5,7021.1z"/>
	<path fill="#EB008B" d="M2374.2,7039.7C2374.2,7039.7,2374.2,7039.6,2374.2,7039.7C2374.2,7039.6,2374.2,7039.7,2374.2,7039.7z"/>
	<path fill="#EB008B" d="M2373,7056c0-0.9,0-1.9,0-2.8C2373,7054.1,2373,7055.1,2373,7056z"/>
	<path fill="#EB008B" d="M2377.7,7023.6c0,0,0-0.1,0-0.1C2377.7,7023.5,2377.7,7023.6,2377.7,7023.6z"/>
	<path fill="#EB008B" d="M2481.4,6942.1c0.5,0,0.9,0,1.4-0.1C2482.3,6942.1,2481.9,6942.1,2481.4,6942.1z"/>
	<path fill="#EB008B" d="M2373.8,7042.5c0-0.1,0-0.2,0-0.3C2373.8,7042.4,2373.8,7042.5,2373.8,7042.5z"/>
	<path fill="#EB008B" d="M2373.5,7045.5c0-0.2,0-0.4,0-0.5C2373.5,7045.1,2373.5,7045.3,2373.5,7045.5z"/>
	<path fill="#EB008B" d="M2478.7,6942.3c0.3,0,0.6,0,0.9-0.1C2479.3,6942.3,2479,6942.3,2478.7,6942.3z"/>
	<path fill="#EB008B" d="M2484.2,6942c0.9,0,1.9,0,2.8,0C2486.1,6942,2485.1,6942,2484.2,6942z"/>
	<path fill="#EB008B" d="M2401.2,6980.9c0.4-0.5,0.9-1,1.3-1.5C2402.1,6979.9,2401.6,6980.4,2401.2,6980.9z"/>
	<path fill="#EB008B" d="M2406.9,6974.9c-0.2,0.2-0.3,0.3-0.5,0.5s-0.3,0.3-0.5,0.5C2406.2,6975.6,2406.6,6975.2,2406.9,6974.9z"/>
	<path fill="#EB008B" d="M2435.2,6954.4c0.7-0.4,1.4-0.7,2.1-1.1C2436.7,6953.7,2435.9,6954,2435.2,6954.4z"/>
	<path fill="#EB008B" d="M2437.9,6953.1c0.6-0.3,1.2-0.6,1.9-0.9C2439.1,6952.5,2438.5,6952.8,2437.9,6953.1z"/>
	<path fill="#EB008B" d="M2440.6,6951.9c0.5-0.2,1.1-0.5,1.6-0.7C2441.6,6951.4,2441.1,6951.6,2440.6,6951.9z"/>
	<path fill="#EB008B" d="M2399.2,6983.2c0.5-0.6,1-1.2,1.5-1.8C2400.2,6982.1,2399.7,6982.6,2399.2,6983.2z"/>
	<path fill="#EB008B" d="M2414.6,6968c0.7-0.5,1.3-1.1,2-1.6C2415.9,6966.9,2415.2,6967.4,2414.6,6968z"/>
	<path fill="#EB008B" d="M2410.4,6971.5c0.5-0.5,1-0.9,1.5-1.3C2411.4,6970.6,2410.9,6971.1,2410.4,6971.5z"/>
	<path fill="#EB008B" d="M2416.7,6966.3c5-3.9,10.4-7.5,16-10.5C2427.1,6958.8,2421.7,6962.3,2416.7,6966.3z"/>
	<path fill="#EB008B" d="M2403.3,6978.6c0.4-0.4,0.7-0.8,1.1-1.2C2404.1,6977.8,2403.7,6978.2,2403.3,6978.6z"/>
	<path fill="#EB008B" d="M2397.4,6985.5c0.5-0.7,1-1.3,1.6-2C2398.4,6984.2,2397.9,6984.9,2397.4,6985.5z"/>
	<path fill="#EB008B" d="M2408.4,6973.4c0.4-0.4,0.8-0.8,1.2-1.1C2409.2,6972.7,2408.8,6973.1,2408.4,6973.4z"/>
	<path fill="#EB008B" d="M2432.7,6955.8c0.8-0.4,1.5-0.8,2.3-1.2C2434.2,6954.9,2433.4,6955.3,2432.7,6955.8z"/>
	<path fill="#EB008B" d="M2473.3,6942.8c0.1,0,0.2,0,0.3,0C2473.5,6942.8,2473.4,6942.8,2473.3,6942.8z"/>
	<path fill="#EB008B" d="M2382.2,7011.2c0.2-0.5,0.5-1.1,0.7-1.6C2382.6,7010.1,2382.4,7010.6,2382.2,7011.2z"/>
	<path fill="#EB008B" d="M2470.6,6943.2C2470.6,6943.2,2470.7,6943.2,2470.6,6943.2C2470.7,6943.2,2470.6,6943.2,2470.6,6943.2z"/>
	<path fill="#EB008B" d="M2454.5,6946.7c0,0,0.1,0,0.1,0C2454.6,6946.7,2454.5,6946.7,2454.5,6946.7z"/>
	<path fill="#EB008B" d="M2381.2,7013.6c0.2-0.4,0.3-0.8,0.5-1.3C2381.5,7012.8,2381.3,7013.2,2381.2,7013.6z"/>
	<path fill="#EB008B" d="M2383.2,7008.8c0.3-0.6,0.6-1.3,0.9-1.9C2383.8,7007.5,2383.5,7008.1,2383.2,7008.8z"/>
	<path fill="#EB008B" d="M2443.3,6950.7c0.4-0.2,0.8-0.3,1.3-0.5C2444.2,6950.3,2443.8,6950.5,2443.3,6950.7z"/>
	<path fill="#EB008B" d="M2380.2,7016.1c0.1-0.3,0.2-0.6,0.4-0.9C2380.4,7015.4,2380.3,7015.7,2380.2,7016.1z"/>
	<path fill="#EB008B" d="M2386.8,7001.6c3.1-5.6,6.6-11,10.5-16C2393.3,6990.7,2389.8,6996.1,2386.8,7001.6z"/>
	<path fill="#EB008B" d="M2451.7,6947.6c0.1,0,0.2-0.1,0.3-0.1C2451.9,6947.5,2451.8,6947.5,2451.7,6947.6z"/>
	<path fill="#EB008B" d="M2446.1,6949.6c0.3-0.1,0.6-0.2,0.9-0.4C2446.7,6949.3,2446.4,6949.4,2446.1,6949.6z"/>
	<path fill="#EB008B" d="M2384.3,7006.4c0.3-0.7,0.7-1.4,1.1-2.1C2385,7004.9,2384.7,7005.7,2384.3,7006.4z"/>
	<path fill="#EB008B" d="M2448.9,6948.5c0.2-0.1,0.4-0.1,0.6-0.2C2449.3,6948.4,2449.1,6948.5,2448.9,6948.5z"/>
	<path fill="#EB008B" d="M2385.5,7004c0.4-0.8,0.8-1.6,1.2-2.3C2386.3,7002.4,2385.9,7003.2,2385.5,7004z"/>
	<path fill="#FF0079" d="M2373,7331.2v12.8c0,63,51,114,114,114s114-51,114-114v-12.8l-114-114L2373,7331.2z"/>
	<polygon fill="#00008A" points="2534.2,7170 2487,7217.2 2601,7331.2 2601,7170 	"/>
	<polygon fill="#00008A" points="2439.8,7170 2373,7170 2373,7331.2 2487,7217.2 	"/>
	<polygon fill="#00008A" points="2439.8,7170 2487,7217.2 2534.2,7170 2487,7170 	"/>
	<polygon fill="#00008A" points="2534.2,7170 2601,7170 2601,7103.2 2567.6,7136.6 	"/>
	<path fill="#00008A" d="M2601,7058.8c0,0.5,0,0.9,0,1.4c0,0.5,0,0.9-0.1,1.4c0,0.6-0.1,1.2-0.1,1.9c0,0.3,0,0.6-0.1,0.9
		c-0.1,0.7-0.1,1.5-0.2,2.2c0,0.2,0,0.4,0,0.5c-0.1,0.8-0.2,1.6-0.3,2.4c0,0.1,0,0.2,0,0.3c-0.1,0.9-0.2,1.7-0.3,2.6
		c0,0,0,0.1,0,0.1c-0.8,5.5-2,10.8-3.5,16c0,0,0,0.1,0,0.1c-0.2,0.8-0.5,1.6-0.8,2.4c0,0.1-0.1,0.2-0.1,0.3
		c-0.2,0.7-0.5,1.4-0.7,2.2c-0.1,0.2-0.1,0.4-0.2,0.6c-0.2,0.6-0.4,1.2-0.7,1.9c-0.1,0.3-0.2,0.6-0.4,0.9c-0.2,0.5-0.4,1-0.6,1.5
		c-0.2,0.4-0.3,0.8-0.5,1.3c-0.2,0.4-0.3,0.8-0.5,1.2c-0.2,0.5-0.5,1.1-0.7,1.6c-0.1,0.3-0.2,0.6-0.4,0.8c-0.3,0.6-0.6,1.3-0.9,1.9
		c-0.1,0.2-0.2,0.3-0.2,0.5c-0.3,0.7-0.7,1.4-1.1,2.1c0,0.1-0.1,0.2-0.1,0.2c-0.4,0.8-0.8,1.6-1.2,2.3c0,0,0,0,0,0
		c-3,5.6-6.5,10.9-10.5,16c0,0-0.1,0.1-0.1,0.1c-0.5,0.7-1,1.3-1.6,2c-0.1,0.1-0.2,0.2-0.3,0.3c-0.5,0.6-1,1.2-1.5,1.8
		c-0.2,0.2-0.3,0.4-0.5,0.5c-0.4,0.5-0.9,1-1.3,1.5c-0.3,0.3-0.5,0.6-0.8,0.8c-0.4,0.4-0.7,0.8-1.1,1.2c-0.5,0.5-1,1-1.4,1.5
		c-0.2,0.2-0.3,0.3-0.5,0.5l33.4-33.4V7056C2601,7056.9,2601,7057.9,2601,7058.8z"/>
	<path fill="#00008A" d="M2567.1,7137.1c-0.5,0.5-1,1-1.5,1.5c-0.4,0.4-0.8,0.7-1.2,1.1c-0.3,0.3-0.6,0.5-0.8,0.8
		c-0.5,0.5-1,0.9-1.5,1.3c-0.2,0.2-0.4,0.3-0.5,0.5c-0.6,0.5-1.2,1-1.8,1.5c-0.1,0.1-0.2,0.2-0.3,0.3c-0.7,0.5-1.3,1.1-2,1.6
		c0,0-0.1,0.1-0.1,0.1c-5.1,4-10.4,7.5-16,10.5c0,0,0,0,0,0c-0.8,0.4-1.5,0.8-2.3,1.2c-0.1,0-0.2,0.1-0.3,0.1
		c-0.7,0.4-1.4,0.7-2.1,1.1c-0.2,0.1-0.4,0.2-0.5,0.3c-0.6,0.3-1.2,0.6-1.9,0.9c-0.3,0.1-0.6,0.3-0.8,0.4c-0.5,0.2-1,0.5-1.6,0.7
		c-0.4,0.2-0.8,0.3-1.2,0.5c-0.4,0.2-0.8,0.3-1.2,0.5c-0.5,0.2-1,0.4-1.5,0.6c-0.3,0.1-0.6,0.2-0.9,0.3c-0.6,0.2-1.2,0.5-1.9,0.7
		c-0.2,0.1-0.4,0.1-0.6,0.2c-0.7,0.3-1.5,0.5-2.2,0.7c-0.1,0-0.2,0.1-0.3,0.1c-0.8,0.3-1.6,0.5-2.4,0.8c0,0-0.1,0-0.1,0
		c-5.2,1.5-10.5,2.7-16,3.5c0,0,0,0-0.1,0c-0.9,0.1-1.7,0.2-2.6,0.3c-0.1,0-0.2,0-0.3,0c-0.8,0.1-1.6,0.2-2.4,0.3
		c-0.2,0-0.4,0-0.5,0c-0.7,0.1-1.4,0.1-2.2,0.2c-0.3,0-0.6,0-0.9,0.1c-0.6,0-1.2,0.1-1.9,0.1c-0.5,0-0.9,0-1.4,0.1
		c-0.5,0-0.9,0-1.4,0c-0.9,0-1.9,0-2.8,0h47.2l33.4-33.4C2567.4,7136.8,2567.3,7136.9,2567.1,7137.1z"/>
	<path fill="#EB008B" d="M2538.8,7157.6c-0.7,0.4-1.4,0.7-2.1,1.1C2537.3,7158.3,2538,7158,2538.8,7157.6z"/>
	<path fill="#EB008B" d="M2589.7,7105.6c-0.3,0.7-0.7,1.4-1.1,2.1C2589,7107.1,2589.3,7106.3,2589.7,7105.6z"/>
	<path fill="#EB008B" d="M2593.8,7095.9c-0.1,0.3-0.2,0.6-0.4,0.9C2593.6,7096.6,2593.7,7096.3,2593.8,7095.9z"/>
	<path fill="#EB008B" d="M2590.8,7103.2c-0.3,0.6-0.6,1.3-0.9,1.9C2590.2,7104.5,2590.5,7103.9,2590.8,7103.2z"/>
	<path fill="#EB008B" d="M2592.8,7098.4c-0.2,0.4-0.3,0.8-0.5,1.3C2592.5,7099.2,2592.7,7098.8,2592.8,7098.4z"/>
	<path fill="#EB008B" d="M2591.8,7100.8c-0.2,0.5-0.5,1.1-0.7,1.6C2591.4,7101.9,2591.6,7101.4,2591.8,7100.8z"/>
	<path fill="#EB008B" d="M2574.8,7128.8c-0.5,0.6-1,1.2-1.5,1.8C2573.8,7129.9,2574.3,7129.4,2574.8,7128.8z"/>
	<path fill="#EB008B" d="M2588.5,7108c-0.4,0.8-0.8,1.6-1.2,2.3C2587.7,7109.6,2588.1,7108.8,2588.5,7108z"/>
	<path fill="#EB008B" d="M2576.6,7126.5c-0.5,0.7-1,1.3-1.6,2C2575.6,7127.8,2576.1,7127.1,2576.6,7126.5z"/>
	<path fill="#EB008B" d="M2572.8,7131.1c-0.4,0.5-0.9,1-1.3,1.5C2571.9,7132.1,2572.4,7131.6,2572.8,7131.1z"/>
	<path fill="#EB008B" d="M2587.2,7110.4c-3.1,5.6-6.6,11-10.5,16C2580.7,7121.3,2584.2,7115.9,2587.2,7110.4z"/>
	<path fill="#EB008B" d="M2600.9,7060.2c0,0.5,0,0.9-0.1,1.4C2600.9,7061.1,2600.9,7060.7,2600.9,7060.2z"/>
	<path fill="#EB008B" d="M2600.8,7063.5c0,0.3,0,0.6-0.1,0.9C2600.7,7064,2600.7,7063.7,2600.8,7063.5z"/>
	<path fill="#EB008B" d="M2601,7056c0,0.9,0,1.9,0,2.8C2601,7057.9,2601,7056.9,2601,7056z"/>
	<path fill="#EB008B" d="M2600.5,7066.5c0,0.2,0,0.4,0,0.5C2600.5,7066.9,2600.5,7066.7,2600.5,7066.5z"/>
	<path fill="#EB008B" d="M2594.7,7093.5c-0.1,0.2-0.1,0.4-0.2,0.6C2594.5,7093.9,2594.6,7093.7,2594.7,7093.5z"/>
	<path fill="#EB008B" d="M2595.5,7090.9c0,0.1-0.1,0.2-0.1,0.3C2595.5,7091.2,2595.5,7091.1,2595.5,7090.9z"/>
	<path fill="#EB008B" d="M2596.3,7088.4c0,0,0,0.1,0,0.1C2596.3,7088.5,2596.3,7088.4,2596.3,7088.4z"/>
	<path fill="#EB008B" d="M2599.8,7072.3C2599.8,7072.3,2599.8,7072.4,2599.8,7072.3C2599.8,7072.4,2599.8,7072.3,2599.8,7072.3z"/>
	<path fill="#EB008B" d="M2600.2,7069.5c0,0.1,0,0.2,0,0.3C2600.2,7069.6,2600.2,7069.5,2600.2,7069.5z"/>
	<path fill="#EB008B" d="M2492.6,7169.9c-0.5,0-0.9,0-1.4,0.1C2491.7,7169.9,2492.1,7169.9,2492.6,7169.9z"/>
	<path fill="#EB008B" d="M2522.3,7164.4c-0.1,0-0.2,0.1-0.3,0.1C2522.1,7164.5,2522.2,7164.5,2522.3,7164.4z"/>
	<path fill="#EB008B" d="M2519.5,7165.3c0,0-0.1,0-0.1,0C2519.4,7165.3,2519.5,7165.3,2519.5,7165.3z"/>
	<path fill="#EB008B" d="M2503.4,7168.8C2503.4,7168.8,2503.3,7168.8,2503.4,7168.8C2503.3,7168.8,2503.4,7168.8,2503.4,7168.8z"/>
	<path fill="#EB008B" d="M2525.1,7163.5c-0.2,0.1-0.4,0.1-0.6,0.2C2524.7,7163.6,2524.9,7163.6,2525.1,7163.5z"/>
	<path fill="#EB008B" d="M2489.8,7170c-0.9,0-1.9,0-2.8,0C2487.9,7170,2488.9,7170,2489.8,7170z"/>
	<path fill="#EB008B" d="M2527.9,7162.4c-0.3,0.1-0.6,0.2-0.9,0.3C2527.3,7162.7,2527.6,7162.6,2527.9,7162.4z"/>
	<path fill="#EB008B" d="M2570.7,7133.4c-0.4,0.4-0.7,0.8-1.1,1.2C2569.9,7134.2,2570.3,7133.8,2570.7,7133.4z"/>
	<path fill="#EB008B" d="M2498,7169.5c-0.2,0-0.4,0-0.5,0C2497.7,7169.5,2497.9,7169.5,2498,7169.5z"/>
	<path fill="#EB008B" d="M2500.7,7169.2c-0.1,0-0.2,0-0.3,0C2500.5,7169.2,2500.6,7169.2,2500.7,7169.2z"/>
	<path fill="#EB008B" d="M2495.3,7169.7c-0.3,0-0.6,0-0.9,0.1C2494.8,7169.7,2495,7169.7,2495.3,7169.7z"/>
	<path fill="#EB008B" d="M2533.4,7160.2c-0.5,0.2-1,0.5-1.6,0.7C2532.4,7160.6,2532.9,7160.4,2533.4,7160.2z"/>
	<path fill="#EB008B" d="M2563.6,7140.5c-0.5,0.5-1,0.9-1.5,1.3C2562.6,7141.4,2563.1,7140.9,2563.6,7140.5z"/>
	<path fill="#EB008B" d="M2559.4,7144c-0.6,0.5-1.3,1.1-2,1.6C2558.1,7145.1,2558.8,7144.6,2559.4,7144z"/>
	<path fill="#EB008B" d="M2565.6,7138.6c-0.4,0.4-0.8,0.7-1.2,1.1C2564.8,7139.3,2565.2,7138.9,2565.6,7138.6z"/>
	<path fill="#EB008B" d="M2561.5,7142.3c-0.6,0.5-1.2,1-1.8,1.5C2560.4,7143.3,2560.9,7142.8,2561.5,7142.3z"/>
	<path fill="#EB008B" d="M2536.1,7158.9c-0.6,0.3-1.2,0.6-1.9,0.9C2534.9,7159.5,2535.5,7159.2,2536.1,7158.9z"/>
	<path fill="#EB008B" d="M2541.3,7156.3c-0.8,0.4-1.5,0.8-2.3,1.2C2539.8,7157.1,2540.6,7156.7,2541.3,7156.3z"/>
	<path fill="#EB008B" d="M2557.3,7145.7c-5,3.9-10.4,7.5-16,10.5C2546.9,7153.2,2552.3,7149.7,2557.3,7145.7z"/>
	<path fill="#EB008B" d="M2530.7,7161.3c-0.4,0.2-0.8,0.3-1.2,0.5C2529.8,7161.7,2530.2,7161.5,2530.7,7161.3z"/>
	<path fill="#EB008B" d="M2567.1,7137.1c0.2-0.2,0.3-0.3,0.5-0.5c0.2-0.2,0.3-0.3,0.5-0.5
		C2567.8,7136.4,2567.4,7136.8,2567.1,7137.1z"/>
	<polygon fill="#00008A" points="2373,7103.2 2373,7170 2439.8,7170 2406.4,7136.6 	"/>
	<path fill="#00008A" d="M2484.2,7170c-0.5,0-0.9,0-1.4,0c-0.5,0-0.9,0-1.4-0.1c-0.6,0-1.2-0.1-1.9-0.1c-0.3,0-0.6,0-0.9-0.1
		c-0.7-0.1-1.5-0.1-2.2-0.2c-0.2,0-0.4,0-0.5,0c-0.8-0.1-1.6-0.2-2.4-0.3c-0.1,0-0.2,0-0.3,0c-0.9-0.1-1.7-0.2-2.6-0.3
		c0,0,0,0-0.1,0c-5.5-0.8-10.8-2-16-3.5c0,0-0.1,0-0.1,0c-0.8-0.2-1.6-0.5-2.4-0.8c-0.1,0-0.2-0.1-0.3-0.1c-0.7-0.2-1.5-0.5-2.2-0.7
		c-0.2-0.1-0.4-0.1-0.6-0.2c-0.6-0.2-1.3-0.4-1.9-0.7c-0.3-0.1-0.6-0.2-0.9-0.3c-0.5-0.2-1-0.4-1.5-0.6c-0.4-0.2-0.8-0.3-1.2-0.5
		c-0.4-0.2-0.8-0.3-1.2-0.5c-0.5-0.2-1-0.5-1.6-0.7c-0.3-0.1-0.6-0.2-0.8-0.4c-0.6-0.3-1.2-0.6-1.9-0.9c-0.2-0.1-0.4-0.2-0.5-0.3
		c-0.7-0.3-1.4-0.7-2.1-1.1c-0.1,0-0.2-0.1-0.3-0.1c-0.8-0.4-1.5-0.8-2.3-1.2c0,0,0,0,0,0c-5.5-3-10.9-6.5-16-10.5
		c0,0-0.1-0.1-0.1-0.1c-0.7-0.5-1.3-1-2-1.6c-0.1-0.1-0.2-0.2-0.3-0.3c-0.6-0.5-1.2-1-1.8-1.5c-0.2-0.2-0.4-0.3-0.5-0.5
		c-0.5-0.4-1-0.9-1.5-1.3c-0.3-0.3-0.6-0.5-0.8-0.8c-0.4-0.4-0.8-0.7-1.2-1.1c-0.5-0.5-1-1-1.5-1.5c-0.2-0.2-0.3-0.3-0.5-0.5
		l33.4,33.4h47.2C2486.1,7170,2485.1,7170,2484.2,7170z"/>
	<path fill="#00008A" d="M2405.9,7136.1c-0.5-0.5-1-1-1.4-1.5c-0.4-0.4-0.8-0.8-1.1-1.2c-0.3-0.3-0.5-0.5-0.8-0.8
		c-0.5-0.5-0.9-1-1.3-1.5c-0.2-0.2-0.3-0.4-0.5-0.5c-0.5-0.6-1-1.2-1.5-1.8c-0.1-0.1-0.2-0.2-0.3-0.3c-0.5-0.7-1.1-1.3-1.6-2
		c0,0-0.1-0.1-0.1-0.1c-4-5.1-7.5-10.4-10.5-16c0,0,0,0,0,0c-0.4-0.8-0.8-1.5-1.2-2.3c0-0.1-0.1-0.2-0.1-0.2
		c-0.4-0.7-0.7-1.4-1.1-2.1c-0.1-0.2-0.2-0.3-0.2-0.5c-0.3-0.6-0.6-1.2-0.9-1.9c-0.1-0.3-0.2-0.6-0.4-0.8c-0.2-0.5-0.5-1.1-0.7-1.6
		c-0.2-0.4-0.3-0.8-0.5-1.2c-0.2-0.4-0.3-0.8-0.5-1.3c-0.2-0.5-0.4-1-0.6-1.5c-0.1-0.3-0.2-0.6-0.4-0.9c-0.2-0.6-0.5-1.2-0.7-1.9
		c-0.1-0.2-0.1-0.4-0.2-0.6c-0.3-0.7-0.5-1.4-0.7-2.2c0-0.1-0.1-0.2-0.1-0.3c-0.3-0.8-0.5-1.6-0.8-2.4c0,0,0-0.1,0-0.1
		c-1.5-5.2-2.7-10.5-3.5-16c0,0,0-0.1,0-0.1c-0.1-0.9-0.2-1.7-0.3-2.6c0-0.1,0-0.2,0-0.3c-0.1-0.8-0.2-1.6-0.3-2.4
		c0-0.2,0-0.4,0-0.5c-0.1-0.7-0.1-1.4-0.2-2.2c0-0.3,0-0.6-0.1-0.9c0-0.6-0.1-1.2-0.1-1.9c0-0.5,0-0.9-0.1-1.4c0-0.5,0-0.9,0-1.4
		c0-0.9,0-1.9,0-2.8v47.2l33.4,33.4C2406.2,7136.4,2406.1,7136.3,2405.9,7136.1z"/>
	<path fill="#EB008B" d="M2377.7,7088.5c0,0,0-0.1,0-0.1C2377.7,7088.4,2377.7,7088.5,2377.7,7088.5z"/>
	<path fill="#EB008B" d="M2452,7164.5c-0.1,0-0.2-0.1-0.3-0.1C2451.8,7164.5,2451.9,7164.5,2452,7164.5z"/>
	<path fill="#EB008B" d="M2454.6,7165.3c0,0-0.1,0-0.1,0C2454.5,7165.3,2454.6,7165.3,2454.6,7165.3z"/>
	<path fill="#EB008B" d="M2374.2,7072.4C2374.2,7072.4,2374.2,7072.3,2374.2,7072.4C2374.2,7072.3,2374.2,7072.4,2374.2,7072.4z"/>
	<path fill="#EB008B" d="M2378.6,7091.3c0-0.1-0.1-0.2-0.1-0.3C2378.5,7091.1,2378.5,7091.2,2378.6,7091.3z"/>
	<path fill="#EB008B" d="M2447.1,7162.8c-0.3-0.1-0.6-0.2-0.9-0.3C2446.4,7162.6,2446.7,7162.7,2447.1,7162.8z"/>
	<path fill="#EB008B" d="M2379.5,7094.1c-0.1-0.2-0.1-0.4-0.2-0.6C2379.4,7093.7,2379.5,7093.9,2379.5,7094.1z"/>
	<path fill="#EB008B" d="M2470.7,7168.8C2470.7,7168.8,2470.6,7168.8,2470.7,7168.8C2470.6,7168.8,2470.7,7168.8,2470.7,7168.8z"/>
	<path fill="#EB008B" d="M2449.5,7163.7c-0.2-0.1-0.4-0.1-0.6-0.2C2449.1,7163.6,2449.3,7163.6,2449.5,7163.7z"/>
	<path fill="#EB008B" d="M2373.8,7069.7c0-0.1,0-0.2,0-0.3C2373.8,7069.5,2373.8,7069.6,2373.8,7069.7z"/>
	<path fill="#EB008B" d="M2482.8,7169.9c-0.5,0-0.9,0-1.4-0.1C2481.9,7169.9,2482.3,7169.9,2482.8,7169.9z"/>
	<path fill="#EB008B" d="M2479.5,7169.8c-0.3,0-0.6,0-0.9-0.1C2479,7169.7,2479.2,7169.7,2479.5,7169.8z"/>
	<path fill="#EB008B" d="M2373.1,7061.6c0-0.5,0-0.9-0.1-1.4C2373.1,7060.7,2373.1,7061.1,2373.1,7061.6z"/>
	<path fill="#EB008B" d="M2373,7058.8c0-0.9,0-1.9,0-2.8C2373,7056.9,2373,7057.9,2373,7058.8z"/>
	<path fill="#EB008B" d="M2473.5,7169.2c-0.1,0-0.2,0-0.3,0C2473.4,7169.2,2473.5,7169.2,2473.5,7169.2z"/>
	<path fill="#EB008B" d="M2380.6,7096.9c-0.1-0.3-0.2-0.6-0.4-0.9C2380.3,7096.3,2380.4,7096.6,2380.6,7096.9z"/>
	<path fill="#EB008B" d="M2373.5,7067c0-0.2,0-0.4,0-0.5C2373.5,7066.7,2373.5,7066.9,2373.5,7067z"/>
	<path fill="#EB008B" d="M2476.5,7169.5c-0.2,0-0.4,0-0.5,0C2476.1,7169.5,2476.3,7169.5,2476.5,7169.5z"/>
	<path fill="#EB008B" d="M2373.3,7064.3c0-0.3,0-0.6-0.1-0.9C2373.3,7063.7,2373.3,7064,2373.3,7064.3z"/>
	<path fill="#EB008B" d="M2404.4,7134.6c-0.4-0.4-0.8-0.8-1.1-1.2C2403.7,7133.8,2404.1,7134.2,2404.4,7134.6z"/>
	<path fill="#EB008B" d="M2416.5,7145.6c-0.7-0.5-1.3-1-2-1.6C2415.2,7144.6,2415.9,7145.1,2416.5,7145.6z"/>
	<path fill="#EB008B" d="M2399,7128.4c-0.5-0.6-1.1-1.3-1.6-2C2397.9,7127.1,2398.4,7127.8,2399,7128.4z"/>
	<path fill="#EB008B" d="M2397.3,7126.3c-3.9-5-7.5-10.4-10.5-16C2389.8,7115.9,2393.3,7121.3,2397.3,7126.3z"/>
	<path fill="#EB008B" d="M2487,7170c-0.9,0-1.9,0-2.8,0C2485.1,7170,2486.1,7170,2487,7170z"/>
	<path fill="#EB008B" d="M2409.6,7139.7c-0.4-0.4-0.8-0.7-1.2-1.1C2408.8,7138.9,2409.2,7139.3,2409.6,7139.7z"/>
	<path fill="#EB008B" d="M2402.5,7132.6c-0.5-0.5-0.9-1-1.3-1.5C2401.6,7131.6,2402.1,7132.1,2402.5,7132.6z"/>
	<path fill="#EB008B" d="M2432.6,7156.2c-5.6-3.1-11-6.6-16-10.5C2421.7,7149.7,2427.1,7153.2,2432.6,7156.2z"/>
	<path fill="#EB008B" d="M2411.9,7141.8c-0.5-0.4-1-0.9-1.5-1.3C2410.9,7140.9,2411.4,7141.4,2411.9,7141.8z"/>
	<path fill="#EB008B" d="M2400.7,7130.5c-0.5-0.6-1-1.2-1.5-1.8C2399.7,7129.4,2400.2,7129.9,2400.7,7130.5z"/>
	<path fill="#EB008B" d="M2385.4,7107.8c-0.4-0.7-0.7-1.4-1.1-2.1C2384.7,7106.3,2385,7107.1,2385.4,7107.8z"/>
	<path fill="#EB008B" d="M2442.2,7160.8c-0.5-0.2-1-0.5-1.6-0.7C2441.1,7160.4,2441.6,7160.6,2442.2,7160.8z"/>
	<path fill="#EB008B" d="M2439.8,7159.8c-0.6-0.3-1.2-0.6-1.9-0.9C2438.5,7159.2,2439.1,7159.5,2439.8,7159.8z"/>
	<path fill="#EB008B" d="M2382.9,7102.4c-0.2-0.5-0.5-1.1-0.7-1.6C2382.4,7101.4,2382.6,7101.9,2382.9,7102.4z"/>
	<path fill="#EB008B" d="M2381.7,7099.7c-0.2-0.4-0.3-0.8-0.5-1.3C2381.3,7098.8,2381.5,7099.2,2381.7,7099.7z"/>
	<path fill="#EB008B" d="M2386.8,7110.3c-0.4-0.8-0.8-1.5-1.2-2.3C2385.9,7108.8,2386.3,7109.6,2386.8,7110.3z"/>
	<path fill="#EB008B" d="M2444.6,7161.8c-0.4-0.2-0.8-0.3-1.2-0.5C2443.8,7161.5,2444.2,7161.7,2444.6,7161.8z"/>
	<path fill="#EB008B" d="M2435,7157.5c-0.8-0.4-1.5-0.8-2.3-1.2C2433.4,7156.7,2434.2,7157.1,2435,7157.5z"/>
	<path fill="#EB008B" d="M2437.4,7158.7c-0.7-0.3-1.4-0.7-2.1-1.1C2436,7158,2436.7,7158.3,2437.4,7158.7z"/>
	<path fill="#EB008B" d="M2384.1,7105.1c-0.3-0.6-0.6-1.2-0.9-1.9C2383.5,7103.9,2383.8,7104.5,2384.1,7105.1z"/>
	<path fill="#EB008B" d="M2414.2,7143.8c-0.6-0.5-1.2-1-1.8-1.5C2413.1,7142.8,2413.6,7143.3,2414.2,7143.8z"/>
	<path fill="#EB008B" d="M2405.9,7136.1c0.2,0.2,0.3,0.3,0.5,0.5c0.2,0.2,0.3,0.3,0.5,0.5
		C2406.6,7136.8,2406.2,7136.4,2405.9,7136.1z"/>
	<path fill="#EB008B" d="M2594.5,7094.1c-0.2,0.6-0.4,1.2-0.7,1.9C2594,7095.3,2594.3,7094.7,2594.5,7094.1z"/>
	<path fill="#EB008B" d="M2600.2,7042.5c0.1,0.8,0.2,1.6,0.3,2.4C2600.4,7044.2,2600.3,7043.3,2600.2,7042.5z"/>
	<path fill="#EB008B" d="M2600.5,7045.5c0.1,0.7,0.1,1.4,0.2,2.2C2600.6,7046.9,2600.6,7046.2,2600.5,7045.5z"/>
	<path fill="#EB008B" d="M2595.4,7091.3c-0.2,0.7-0.5,1.4-0.7,2.2C2594.9,7092.7,2595.2,7092,2595.4,7091.3z"/>
	<path fill="#EB008B" d="M2589.9,7105.1c-0.1,0.2-0.2,0.3-0.2,0.5C2589.7,7105.5,2589.8,7105.3,2589.9,7105.1z"/>
	<path fill="#EB008B" d="M2599.8,7039.7c0.1,0.9,0.2,1.7,0.3,2.6C2600.1,7041.4,2600,7040.5,2599.8,7039.7z"/>
	<path fill="#EB008B" d="M2596.3,7023.6c1.6,5.3,2.7,10.6,3.5,16C2599,7034.1,2597.9,7028.8,2596.3,7023.6z"/>
	<path fill="#EB008B" d="M2568.1,6975.9c0.5,0.5,1,1,1.4,1.5C2569.1,6976.9,2568.6,6976.4,2568.1,6975.9z"/>
	<path fill="#EB008B" d="M2592.3,7099.7c-0.2,0.4-0.3,0.8-0.5,1.2C2592,7100.4,2592.2,7100.1,2592.3,7099.7z"/>
	<path fill="#EB008B" d="M2591.1,7102.4c-0.1,0.3-0.2,0.6-0.4,0.8C2590.9,7103,2591,7102.7,2591.1,7102.4z"/>
	<path fill="#EB008B" d="M2600.7,7064.3c-0.1,0.7-0.1,1.4-0.2,2.2C2600.6,7065.8,2600.6,7065.1,2600.7,7064.3z"/>
	<path fill="#EB008B" d="M2600.9,7061.6c0,0.6-0.1,1.2-0.1,1.9C2600.8,7062.8,2600.8,7062.2,2600.9,7061.6z"/>
	<path fill="#EB008B" d="M2600.5,7067c-0.1,0.8-0.2,1.6-0.3,2.4C2600.3,7068.7,2600.4,7067.8,2600.5,7067z"/>
	<path fill="#EB008B" d="M2601,7058.8c0,0.5,0,0.9,0,1.4C2600.9,7059.7,2601,7059.3,2601,7058.8z"/>
	<path fill="#EB008B" d="M2600.8,7048.5c0,0.6,0.1,1.2,0.1,1.9C2600.8,7049.8,2600.8,7049.2,2600.8,7048.5z"/>
	<path fill="#EB008B" d="M2600.2,7069.7c-0.1,0.9-0.2,1.7-0.3,2.6C2600,7071.5,2600.1,7070.6,2600.2,7069.7z"/>
	<path fill="#EB008B" d="M2600.9,7051.8c0,0.5,0,0.9,0,1.4C2601,7052.7,2600.9,7052.3,2600.9,7051.8z"/>
	<path fill="#EB008B" d="M2596.3,7088.5c-0.2,0.8-0.5,1.6-0.8,2.4C2595.8,7090.1,2596,7089.3,2596.3,7088.5z"/>
	<path fill="#EB008B" d="M2599.8,7072.4c-0.8,5.4-1.9,10.8-3.5,16C2597.9,7083.2,2599,7077.9,2599.8,7072.4z"/>
	<path fill="#EB008B" d="M2595.5,7021.1c0.3,0.8,0.5,1.6,0.8,2.4C2596,7022.7,2595.8,7021.9,2595.5,7021.1z"/>
	<path fill="#EB008B" d="M2569.6,7134.6c-0.5,0.5-1,1-1.4,1.5C2568.6,7135.6,2569.1,7135.1,2569.6,7134.6z"/>
	<path fill="#EB008B" d="M2588.5,7004c0,0.1,0.1,0.2,0.1,0.2C2588.6,7004.2,2588.5,7004.1,2588.5,7004z"/>
	<path fill="#EB008B" d="M2589.7,7006.4c0.1,0.2,0.2,0.3,0.2,0.5C2589.8,7006.7,2589.7,7006.5,2589.7,7006.4z"/>
	<path fill="#EB008B" d="M2587.2,7001.6C2587.2,7001.7,2587.2,7001.7,2587.2,7001.6C2587.2,7001.7,2587.2,7001.7,2587.2,7001.6z"/>
	<path fill="#EB008B" d="M2571.5,7132.6c-0.3,0.3-0.5,0.6-0.8,0.8C2570.9,7133.1,2571.2,7132.9,2571.5,7132.6z"/>
	<path fill="#EB008B" d="M2572.8,6980.9c0.2,0.2,0.3,0.4,0.5,0.5C2573.1,6981.3,2573,6981.1,2572.8,6980.9z"/>
	<path fill="#EB008B" d="M2570.7,6978.6c0.3,0.3,0.5,0.5,0.8,0.8C2571.2,6979.1,2570.9,6978.9,2570.7,6978.6z"/>
	<path fill="#EB008B" d="M2574.8,6983.2c0.1,0.1,0.2,0.2,0.3,0.3C2574.9,6983.4,2574.8,6983.3,2574.8,6983.2z"/>
	<path fill="#EB008B" d="M2576.6,6985.5c0,0,0.1,0.1,0.1,0.1C2576.7,6985.6,2576.6,6985.6,2576.6,6985.5z"/>
	<path fill="#EB008B" d="M2594.7,7018.5c0.3,0.7,0.5,1.4,0.7,2.2C2595.2,7020,2594.9,7019.3,2594.7,7018.5z"/>
	<path fill="#EB008B" d="M2593.8,7016.1c0.2,0.6,0.5,1.2,0.7,1.9C2594.3,7017.3,2594,7016.7,2593.8,7016.1z"/>
	<path fill="#EB008B" d="M2592.8,7013.6c0.2,0.5,0.4,1,0.6,1.5C2593.2,7014.6,2593.1,7014.1,2592.8,7013.6z"/>
	<path fill="#EB008B" d="M2587.2,7110.3C2587.2,7110.3,2587.2,7110.3,2587.2,7110.3C2587.2,7110.3,2587.2,7110.3,2587.2,7110.3z"/>
	<path fill="#EB008B" d="M2588.6,7107.8c0,0.1-0.1,0.2-0.1,0.2C2588.5,7107.9,2588.6,7107.8,2588.6,7107.8z"/>
	<path fill="#EB008B" d="M2576.7,7126.3c0,0-0.1,0.1-0.1,0.1C2576.6,7126.4,2576.7,7126.4,2576.7,7126.3z"/>
	<path fill="#EB008B" d="M2590.8,7008.8c0.1,0.3,0.2,0.6,0.4,0.8C2591,7009.3,2590.9,7009,2590.8,7008.8z"/>
	<path fill="#EB008B" d="M2575,7128.4c-0.1,0.1-0.2,0.2-0.3,0.3C2574.8,7128.7,2574.9,7128.6,2575,7128.4z"/>
	<path fill="#EB008B" d="M2573.3,7130.5c-0.2,0.2-0.3,0.4-0.5,0.5C2573,7130.9,2573.1,7130.7,2573.3,7130.5z"/>
	<path fill="#EB008B" d="M2591.8,7011.2c0.2,0.4,0.3,0.8,0.5,1.2C2592.2,7011.9,2592,7011.6,2591.8,7011.2z"/>
	<path fill="#EB008B" d="M2593.4,7096.9c-0.2,0.5-0.4,1-0.6,1.5C2593.1,7097.9,2593.2,7097.4,2593.4,7096.9z"/>
	<path fill="#EB008B" d="M2565.6,6973.4c0.5,0.5,1,1,1.5,1.4C2566.6,6974.4,2566.1,6973.9,2565.6,6973.4z"/>
	<path fill="#EB008B" d="M2519.5,6946.7c0.8,0.2,1.6,0.5,2.4,0.8C2521.1,6947.2,2520.3,6947,2519.5,6946.7z"/>
	<path fill="#EB008B" d="M2561.5,6969.7c0.2,0.2,0.4,0.3,0.5,0.5C2561.9,6970,2561.7,6969.9,2561.5,6969.7z"/>
	<path fill="#EB008B" d="M2559.4,6968c0.1,0.1,0.2,0.2,0.3,0.3C2559.7,6968.2,2559.6,6968.1,2559.4,6968z"/>
	<path fill="#EB008B" d="M2503.4,6943.2c5.4,0.8,10.8,1.9,16,3.5C2514.2,6945.1,2508.9,6944,2503.4,6943.2z"/>
	<path fill="#EB008B" d="M2563.6,6971.5c0.3,0.3,0.6,0.5,0.8,0.8C2564.1,6972.1,2563.9,6971.8,2563.6,6971.5z"/>
	<path fill="#EB008B" d="M2489.8,6942c0.5,0,0.9,0,1.4,0C2490.7,6942.1,2490.3,6942,2489.8,6942z"/>
	<path fill="#EB008B" d="M2482.8,6942.1c0.5,0,0.9,0,1.4,0C2483.7,6942,2483.3,6942.1,2482.8,6942.1z"/>
	<path fill="#EB008B" d="M2492.6,6942.1c0.6,0,1.2,0.1,1.9,0.1C2493.8,6942.2,2493.2,6942.2,2492.6,6942.1z"/>
	<path fill="#EB008B" d="M2498,6942.5c0.8,0.1,1.6,0.2,2.4,0.3C2499.7,6942.7,2498.8,6942.6,2498,6942.5z"/>
	<path fill="#EB008B" d="M2500.7,6942.8c0.9,0.1,1.7,0.2,2.6,0.3C2502.5,6943,2501.6,6942.9,2500.7,6942.8z"/>
	<path fill="#EB008B" d="M2533.4,6951.9c0.3,0.1,0.6,0.2,0.8,0.4C2534,6952.1,2533.7,6952,2533.4,6951.9z"/>
	<path fill="#EB008B" d="M2522.3,6947.6c0.7,0.2,1.4,0.5,2.2,0.7C2523.7,6948.1,2523,6947.8,2522.3,6947.6z"/>
	<path fill="#EB008B" d="M2530.7,6950.7c0.4,0.2,0.8,0.3,1.2,0.5C2531.4,6951,2531.1,6950.8,2530.7,6950.7z"/>
	<path fill="#EB008B" d="M2536.1,6953.1c0.2,0.1,0.3,0.2,0.5,0.2C2536.5,6953.3,2536.3,6953.2,2536.1,6953.1z"/>
	<path fill="#EB008B" d="M2538.8,6954.4c0.1,0,0.2,0.1,0.2,0.1C2538.9,6954.5,2538.8,6954.4,2538.8,6954.4z"/>
	<path fill="#EB008B" d="M2557.3,6966.3c0,0,0.1,0.1,0.1,0.1C2557.4,6966.4,2557.4,6966.3,2557.3,6966.3z"/>
	<path fill="#EB008B" d="M2525.1,6948.5c0.6,0.2,1.2,0.4,1.9,0.7C2526.3,6949,2525.7,6948.7,2525.1,6948.5z"/>
	<path fill="#EB008B" d="M2541.3,6955.8C2541.3,6955.8,2541.3,6955.8,2541.3,6955.8C2541.3,6955.8,2541.3,6955.8,2541.3,6955.8z"/>
	<path fill="#EB008B" d="M2527.9,6949.6c0.5,0.2,1,0.4,1.5,0.6C2528.9,6949.9,2528.4,6949.8,2527.9,6949.6z"/>
	<path fill="#EB008B" d="M2495.3,6942.3c0.7,0.1,1.4,0.1,2.2,0.2C2496.8,6942.4,2496.1,6942.4,2495.3,6942.3z"/>
	<path fill="#EB008B" d="M2449.5,6948.3c0.7-0.2,1.4-0.5,2.2-0.7C2451,6947.8,2450.3,6948.1,2449.5,6948.3z"/>
	<path fill="#EB008B" d="M2452.1,6947.5c0.8-0.3,1.6-0.5,2.4-0.8C2453.7,6947,2452.9,6947.2,2452.1,6947.5z"/>
	<path fill="#EB008B" d="M2437.4,6953.3c0.2-0.1,0.3-0.2,0.5-0.2C2437.7,6953.2,2437.5,6953.3,2437.4,6953.3z"/>
	<path fill="#EB008B" d="M2454.6,6946.7c5.3-1.6,10.6-2.7,16-3.5C2465.1,6944,2459.8,6945.1,2454.6,6946.7z"/>
	<path fill="#EB008B" d="M2435,6954.5c0.1,0,0.2-0.1,0.2-0.1C2435.2,6954.4,2435.1,6954.5,2435,6954.5z"/>
	<path fill="#EB008B" d="M2439.8,6952.2c0.3-0.1,0.6-0.2,0.8-0.4C2440.3,6952,2440,6952.1,2439.8,6952.2z"/>
	<path fill="#EB008B" d="M2406.9,6974.9c0.5-0.5,1-1,1.5-1.4C2407.9,6973.9,2407.4,6974.4,2406.9,6974.9z"/>
	<path fill="#EB008B" d="M2447.1,6949.2c0.6-0.2,1.2-0.5,1.9-0.7C2448.3,6948.7,2447.7,6949,2447.1,6949.2z"/>
	<path fill="#EB008B" d="M2444.6,6950.2c0.5-0.2,1-0.4,1.5-0.6C2445.6,6949.8,2445.1,6949.9,2444.6,6950.2z"/>
	<path fill="#EB008B" d="M2414.2,6968.2c0.1-0.1,0.2-0.2,0.3-0.3C2414.4,6968.1,2414.3,6968.2,2414.2,6968.2z"/>
	<path fill="#EB008B" d="M2476.5,6942.5c0.7-0.1,1.4-0.1,2.2-0.2C2477.9,6942.4,2477.2,6942.4,2476.5,6942.5z"/>
	<path fill="#EB008B" d="M2473.5,6942.8c0.8-0.1,1.6-0.2,2.4-0.3C2475.2,6942.6,2474.3,6942.7,2473.5,6942.8z"/>
	<path fill="#EB008B" d="M2442.2,6951.2c0.4-0.2,0.8-0.3,1.2-0.5C2442.9,6950.8,2442.6,6951,2442.2,6951.2z"/>
	<path fill="#EB008B" d="M2409.6,6972.3c0.3-0.3,0.5-0.5,0.8-0.8C2410.1,6971.8,2409.9,6972.1,2409.6,6972.3z"/>
	<path fill="#EB008B" d="M2416.5,6966.4c0,0,0.1-0.1,0.1-0.1C2416.6,6966.3,2416.6,6966.4,2416.5,6966.4z"/>
	<path fill="#EB008B" d="M2411.9,6970.2c0.2-0.2,0.4-0.3,0.5-0.5C2412.3,6969.9,2412.1,6970,2411.9,6970.2z"/>
	<path fill="#EB008B" d="M2479.5,6942.2c0.6,0,1.2-0.1,1.9-0.1C2480.8,6942.2,2480.2,6942.2,2479.5,6942.2z"/>
	<path fill="#EB008B" d="M2432.6,6955.8C2432.7,6955.8,2432.7,6955.8,2432.6,6955.8C2432.7,6955.8,2432.7,6955.8,2432.6,6955.8z"/>
	<path fill="#EB008B" d="M2470.7,6943.2c0.9-0.1,1.7-0.2,2.6-0.3C2472.4,6942.9,2471.5,6943,2470.7,6943.2z"/>
	<path fill="#EB008B" d="M2526.9,7162.8c-0.6,0.2-1.2,0.5-1.9,0.7C2525.7,7163.3,2526.3,7163,2526.9,7162.8z"/>
	<path fill="#EB008B" d="M2524.5,7163.7c-0.7,0.3-1.5,0.5-2.2,0.7C2523,7164.2,2523.7,7163.9,2524.5,7163.7z"/>
	<path fill="#EB008B" d="M2557.5,7145.6c0,0-0.1,0.1-0.1,0.1C2557.4,7145.7,2557.4,7145.6,2557.5,7145.6z"/>
	<path fill="#EB008B" d="M2564.4,7139.7c-0.3,0.3-0.6,0.5-0.8,0.8C2563.9,7140.2,2564.1,7139.9,2564.4,7139.7z"/>
	<path fill="#EB008B" d="M2562.1,7141.8c-0.2,0.2-0.4,0.3-0.5,0.5C2561.7,7142.1,2561.9,7142,2562.1,7141.8z"/>
	<path fill="#EB008B" d="M2559.8,7143.8c-0.1,0.1-0.2,0.2-0.3,0.3C2559.6,7143.9,2559.7,7143.8,2559.8,7143.8z"/>
	<path fill="#EB008B" d="M2522,7164.5c-0.8,0.3-1.6,0.5-2.4,0.8C2520.3,7165,2521.1,7164.8,2522,7164.5z"/>
	<path fill="#EB008B" d="M2567.1,7137.1c-0.5,0.5-1,1-1.5,1.5C2566.1,7138.1,2566.6,7137.6,2567.1,7137.1z"/>
	<path fill="#EB008B" d="M2531.8,7160.8c-0.4,0.2-0.8,0.3-1.2,0.5C2531,7161.2,2531.4,7161,2531.8,7160.8z"/>
	<path fill="#EB008B" d="M2529.4,7161.8c-0.5,0.2-1,0.4-1.5,0.6C2528.4,7162.2,2528.9,7162.1,2529.4,7161.8z"/>
	<path fill="#EB008B" d="M2534.2,7159.8c-0.3,0.1-0.6,0.3-0.8,0.4C2533.7,7160,2534,7159.9,2534.2,7159.8z"/>
	<path fill="#EB008B" d="M2539,7157.5c-0.1,0-0.2,0.1-0.3,0.1C2538.8,7157.6,2538.9,7157.5,2539,7157.5z"/>
	<path fill="#EB008B" d="M2536.6,7158.7c-0.2,0.1-0.4,0.2-0.5,0.3C2536.3,7158.8,2536.5,7158.7,2536.6,7158.7z"/>
	<path fill="#EB008B" d="M2541.4,7156.2C2541.3,7156.2,2541.3,7156.2,2541.4,7156.2C2541.3,7156.2,2541.3,7156.2,2541.4,7156.2z"/>
	<path fill="#EB008B" d="M2476,7169.5c-0.8-0.1-1.6-0.2-2.4-0.3C2474.3,7169.3,2475.2,7169.4,2476,7169.5z"/>
	<path fill="#EB008B" d="M2435.2,7157.6c-0.1,0-0.2-0.1-0.3-0.1C2435.1,7157.5,2435.2,7157.6,2435.2,7157.6z"/>
	<path fill="#EB008B" d="M2414.6,7144c-0.1-0.1-0.2-0.2-0.3-0.3C2414.3,7143.8,2414.4,7143.9,2414.6,7144z"/>
	<path fill="#EB008B" d="M2454.5,7165.3c-0.8-0.2-1.6-0.5-2.4-0.8C2452.9,7164.8,2453.7,7165,2454.5,7165.3z"/>
	<path fill="#EB008B" d="M2519.4,7165.3c-5.3,1.6-10.6,2.7-16,3.5C2508.9,7168,2514.2,7166.9,2519.4,7165.3z"/>
	<path fill="#EB008B" d="M2440.6,7160.2c-0.3-0.1-0.6-0.2-0.8-0.4C2440,7159.9,2440.3,7160,2440.6,7160.2z"/>
	<path fill="#EB008B" d="M2443.3,7161.3c-0.4-0.2-0.8-0.3-1.2-0.5C2442.6,7161,2443,7161.2,2443.3,7161.3z"/>
	<path fill="#EB008B" d="M2470.6,7168.8c-5.4-0.8-10.8-1.9-16-3.5C2459.8,7166.9,2465.1,7168,2470.6,7168.8z"/>
	<path fill="#EB008B" d="M2451.7,7164.4c-0.7-0.2-1.5-0.5-2.2-0.7C2450.3,7163.9,2451,7164.2,2451.7,7164.4z"/>
	<path fill="#EB008B" d="M2416.7,7145.7c0,0-0.1-0.1-0.1-0.1C2416.6,7145.6,2416.6,7145.7,2416.7,7145.7z"/>
	<path fill="#EB008B" d="M2446.1,7162.4c-0.5-0.2-1-0.4-1.5-0.6C2445.1,7162.1,2445.6,7162.2,2446.1,7162.4z"/>
	<path fill="#EB008B" d="M2432.7,7156.3C2432.7,7156.2,2432.7,7156.2,2432.7,7156.3C2432.7,7156.2,2432.7,7156.2,2432.7,7156.3z"/>
	<path fill="#EB008B" d="M2437.9,7158.9c-0.2-0.1-0.4-0.2-0.5-0.3C2437.5,7158.7,2437.7,7158.8,2437.9,7158.9z"/>
	<path fill="#EB008B" d="M2448.9,7163.5c-0.6-0.2-1.3-0.4-1.9-0.7C2447.7,7163,2448.3,7163.3,2448.9,7163.5z"/>
	<path fill="#EB008B" d="M2473.3,7169.2c-0.9-0.1-1.7-0.2-2.6-0.3C2471.5,7169,2472.4,7169.1,2473.3,7169.2z"/>
	<path fill="#EB008B" d="M2491.2,7169.9c-0.5,0-0.9,0-1.4,0C2490.3,7170,2490.7,7169.9,2491.2,7169.9z"/>
	<path fill="#EB008B" d="M2494.5,7169.8c-0.6,0-1.2,0.1-1.9,0.1C2493.2,7169.8,2493.8,7169.8,2494.5,7169.8z"/>
	<path fill="#EB008B" d="M2412.5,7142.3c-0.2-0.2-0.4-0.3-0.5-0.5C2412.1,7142,2412.3,7142.1,2412.5,7142.3z"/>
	<path fill="#EB008B" d="M2408.4,7138.6c-0.5-0.5-1-1-1.5-1.5C2407.4,7137.6,2407.9,7138.1,2408.4,7138.6z"/>
	<path fill="#EB008B" d="M2503.3,7168.8c-0.9,0.1-1.7,0.2-2.6,0.3C2501.6,7169.1,2502.5,7169,2503.3,7168.8z"/>
	<path fill="#EB008B" d="M2497.5,7169.5c-0.7,0.1-1.5,0.1-2.2,0.2C2496.1,7169.6,2496.8,7169.6,2497.5,7169.5z"/>
	<path fill="#EB008B" d="M2500.5,7169.2c-0.8,0.1-1.6,0.2-2.4,0.3C2498.8,7169.4,2499.7,7169.3,2500.5,7169.2z"/>
	<path fill="#EB008B" d="M2484.2,7170c-0.5,0-0.9,0-1.4,0C2483.3,7169.9,2483.7,7170,2484.2,7170z"/>
	<path fill="#EB008B" d="M2410.4,7140.5c-0.3-0.3-0.6-0.5-0.8-0.8C2409.9,7139.9,2410.1,7140.2,2410.4,7140.5z"/>
	<path fill="#EB008B" d="M2478.7,7169.7c-0.7-0.1-1.5-0.1-2.2-0.2C2477.2,7169.6,2477.9,7169.6,2478.7,7169.7z"/>
	<path fill="#EB008B" d="M2481.4,7169.9c-0.6,0-1.2-0.1-1.9-0.1C2480.2,7169.8,2480.8,7169.8,2481.4,7169.9z"/>
	<path fill="#EB008B" d="M2385.5,7108c0-0.1-0.1-0.2-0.1-0.2C2385.4,7107.8,2385.5,7107.9,2385.5,7108z"/>
	<path fill="#EB008B" d="M2384.3,7105.6c-0.1-0.2-0.2-0.3-0.2-0.5C2384.2,7105.3,2384.3,7105.5,2384.3,7105.6z"/>
	<path fill="#EB008B" d="M2384.1,7006.9c0.1-0.2,0.2-0.3,0.2-0.5C2384.3,7006.5,2384.2,7006.7,2384.1,7006.9z"/>
	<path fill="#EB008B" d="M2385.4,7004.2c0-0.1,0.1-0.2,0.1-0.2C2385.5,7004.1,2385.4,7004.2,2385.4,7004.2z"/>
	<path fill="#EB008B" d="M2382.9,7009.6c0.1-0.3,0.2-0.6,0.4-0.8C2383.1,7009,2383,7009.3,2382.9,7009.6z"/>
	<path fill="#EB008B" d="M2399,6983.6c0.1-0.1,0.2-0.2,0.3-0.3C2399.2,6983.3,2399.1,6983.4,2399,6983.6z"/>
	<path fill="#EB008B" d="M2399.2,7128.8c-0.1-0.1-0.2-0.2-0.3-0.3C2399.1,7128.6,2399.2,7128.7,2399.2,7128.8z"/>
	<path fill="#EB008B" d="M2401.2,7131.1c-0.2-0.2-0.3-0.4-0.5-0.5C2400.9,7130.7,2401,7130.9,2401.2,7131.1z"/>
	<path fill="#EB008B" d="M2404.4,6977.4c0.5-0.5,1-1,1.4-1.5C2405.4,6976.4,2404.9,6976.9,2404.4,6977.4z"/>
	<path fill="#EB008B" d="M2403.3,7133.4c-0.3-0.3-0.5-0.5-0.8-0.8C2402.8,7132.9,2403.1,7133.1,2403.3,7133.4z"/>
	<path fill="#EB008B" d="M2397.4,7126.5c0,0-0.1-0.1-0.1-0.1C2397.3,7126.4,2397.4,7126.4,2397.4,7126.5z"/>
	<path fill="#EB008B" d="M2386.8,7110.4C2386.8,7110.3,2386.8,7110.3,2386.8,7110.4C2386.8,7110.3,2386.8,7110.3,2386.8,7110.4z"/>
	<path fill="#EB008B" d="M2402.5,6979.4c0.3-0.3,0.5-0.6,0.8-0.8C2403.1,6978.9,2402.8,6979.1,2402.5,6979.4z"/>
	<path fill="#EB008B" d="M2397.3,6985.7c0,0,0.1-0.1,0.1-0.1C2397.4,6985.6,2397.3,6985.6,2397.3,6985.7z"/>
	<path fill="#EB008B" d="M2400.7,6981.5c0.2-0.2,0.3-0.4,0.5-0.5C2401,6981.1,2400.9,6981.3,2400.7,6981.5z"/>
	<path fill="#EB008B" d="M2386.8,7001.7C2386.8,7001.7,2386.8,7001.7,2386.8,7001.7C2386.8,7001.7,2386.8,7001.7,2386.8,7001.7z"/>
	<path fill="#EB008B" d="M2377.7,7088.4c-1.6-5.3-2.7-10.6-3.5-16C2375,7077.9,2376.1,7083.2,2377.7,7088.4z"/>
	<path fill="#EB008B" d="M2373.1,7050.4c0-0.6,0.1-1.2,0.1-1.9C2373.2,7049.2,2373.2,7049.8,2373.1,7050.4z"/>
	<path fill="#EB008B" d="M2379.3,7093.5c-0.3-0.7-0.5-1.4-0.7-2.2C2378.8,7092,2379.1,7092.7,2379.3,7093.5z"/>
	<path fill="#EB008B" d="M2378.5,7090.9c-0.3-0.8-0.5-1.6-0.8-2.4C2378,7089.3,2378.2,7090.1,2378.5,7090.9z"/>
	<path fill="#EB008B" d="M2373,7053.2c0-0.5,0-0.9,0-1.4C2373.1,7052.3,2373,7052.7,2373,7053.2z"/>
	<path fill="#EB008B" d="M2373.3,7047.7c0.1-0.7,0.1-1.4,0.2-2.2C2373.4,7046.2,2373.4,7046.9,2373.3,7047.7z"/>
	<path fill="#EB008B" d="M2374.2,7072.3c-0.1-0.9-0.2-1.7-0.3-2.6C2373.9,7070.6,2374,7071.5,2374.2,7072.3z"/>
	<path fill="#EB008B" d="M2373.2,7063.5c0-0.6-0.1-1.2-0.1-1.9C2373.2,7062.2,2373.2,7062.8,2373.2,7063.5z"/>
	<path fill="#EB008B" d="M2373.8,7069.5c-0.1-0.8-0.2-1.6-0.3-2.4C2373.6,7067.8,2373.7,7068.7,2373.8,7069.5z"/>
	<path fill="#EB008B" d="M2373.1,7060.2c0-0.5,0-0.9,0-1.4C2373,7059.3,2373.1,7059.7,2373.1,7060.2z"/>
	<path fill="#EB008B" d="M2373.5,7066.5c-0.1-0.7-0.1-1.4-0.2-2.2C2373.4,7065.1,2373.4,7065.8,2373.5,7066.5z"/>
	<path fill="#EB008B" d="M2405.9,7136.1c-0.5-0.5-1-1-1.4-1.5C2404.9,7135.1,2405.4,7135.6,2405.9,7136.1z"/>
	<path fill="#EB008B" d="M2373.5,7045c0.1-0.8,0.2-1.6,0.3-2.4C2373.7,7043.3,2373.6,7044.2,2373.5,7045z"/>
	<path fill="#EB008B" d="M2379.5,7017.9c0.2-0.6,0.4-1.2,0.7-1.9C2380,7016.7,2379.7,7017.3,2379.5,7017.9z"/>
	<path fill="#EB008B" d="M2382.2,7100.8c-0.2-0.4-0.3-0.8-0.5-1.2C2381.8,7100.1,2382,7100.4,2382.2,7100.8z"/>
	<path fill="#EB008B" d="M2378.6,7020.7c0.2-0.7,0.5-1.4,0.7-2.2C2379.1,7019.3,2378.8,7020,2378.6,7020.7z"/>
	<path fill="#EB008B" d="M2377.7,7023.5c0.2-0.8,0.5-1.6,0.8-2.4C2378.2,7021.9,2378,7022.7,2377.7,7023.5z"/>
	<path fill="#EB008B" d="M2383.2,7103.2c-0.1-0.3-0.2-0.6-0.4-0.8C2383,7102.7,2383.1,7103,2383.2,7103.2z"/>
	<path fill="#EB008B" d="M2380.6,7015.1c0.2-0.5,0.4-1,0.6-1.5C2380.9,7014.1,2380.8,7014.6,2380.6,7015.1z"/>
	<path fill="#EB008B" d="M2381.7,7012.3c0.2-0.4,0.3-0.8,0.5-1.2C2382,7011.6,2381.8,7011.9,2381.7,7012.3z"/>
	<path fill="#EB008B" d="M2374.2,7039.6c0.8-5.4,1.9-10.8,3.5-16C2376.1,7028.8,2375,7034.1,2374.2,7039.6z"/>
	<path fill="#EB008B" d="M2380.2,7095.9c-0.2-0.6-0.5-1.2-0.7-1.9C2379.7,7094.7,2380,7095.3,2380.2,7095.9z"/>
	<path fill="#EB008B" d="M2373.8,7042.3c0.1-0.9,0.2-1.7,0.3-2.6C2374,7040.5,2373.9,7041.4,2373.8,7042.3z"/>
	<path fill="#EB008B" d="M2381.2,7098.4c-0.2-0.5-0.4-1-0.6-1.5C2380.8,7097.4,2380.9,7097.9,2381.2,7098.4z"/>
	<path fill="#00008A" d="M2600.9,7051.8c0-0.5,0-0.9-0.1-1.4c0-0.6-0.1-1.2-0.1-1.9c0-0.3,0-0.6-0.1-0.9c-0.1-0.7-0.1-1.4-0.2-2.2
		c0-0.2,0-0.4,0-0.5c-0.1-0.8-0.2-1.6-0.3-2.4c0-0.1,0-0.2,0-0.3c-0.1-0.9-0.2-1.7-0.3-2.6c0,0,0-0.1,0-0.1
		c-0.8-5.4-1.9-10.8-3.5-16c0,0,0-0.1,0-0.1c-0.2-0.8-0.5-1.6-0.8-2.4c0-0.1-0.1-0.2-0.1-0.3c-0.2-0.7-0.5-1.4-0.7-2.2
		c-0.1-0.2-0.1-0.4-0.2-0.6c-0.2-0.6-0.4-1.2-0.7-1.9c-0.1-0.3-0.2-0.6-0.4-0.9c-0.2-0.5-0.4-1-0.6-1.5c-0.2-0.4-0.3-0.8-0.5-1.3
		c-0.2-0.4-0.3-0.8-0.5-1.2c-0.2-0.5-0.5-1.1-0.7-1.6c-0.1-0.3-0.2-0.6-0.4-0.8c-0.3-0.6-0.6-1.3-0.9-1.9c-0.1-0.2-0.2-0.3-0.2-0.5
		c-0.3-0.7-0.7-1.4-1.1-2.1c0-0.1-0.1-0.2-0.1-0.2c-0.4-0.8-0.8-1.6-1.2-2.3c0,0,0,0,0,0c-3.1-5.6-6.6-11-10.5-16
		c0,0-0.1-0.1-0.1-0.1c-0.5-0.7-1-1.3-1.6-2c-0.1-0.1-0.2-0.2-0.3-0.3c-0.5-0.6-1-1.2-1.5-1.8c-0.2-0.2-0.3-0.4-0.5-0.5
		c-0.4-0.5-0.9-1-1.3-1.5c-0.3-0.3-0.5-0.6-0.8-0.8c-0.4-0.4-0.7-0.8-1.1-1.2c-0.5-0.5-1-1-1.4-1.5c-0.3-0.3-0.7-0.7-1-1
		c-0.5-0.5-1-1-1.5-1.4c-0.4-0.4-0.8-0.8-1.2-1.1c-0.3-0.3-0.5-0.5-0.8-0.8c-0.5-0.5-1-0.9-1.5-1.3c-0.2-0.2-0.4-0.3-0.5-0.5
		c-0.6-0.5-1.2-1-1.8-1.5c-0.1-0.1-0.2-0.2-0.3-0.3c-0.7-0.5-1.3-1.1-2-1.6c0,0-0.1-0.1-0.1-0.1c-5-3.9-10.4-7.5-16-10.5
		c0,0,0,0,0,0c-0.8-0.4-1.5-0.8-2.3-1.2c-0.1,0-0.2-0.1-0.2-0.1c-0.7-0.4-1.4-0.7-2.1-1.1c-0.2-0.1-0.3-0.2-0.5-0.2
		c-0.6-0.3-1.2-0.6-1.9-0.9c-0.3-0.1-0.6-0.2-0.8-0.4c-0.5-0.2-1.1-0.5-1.6-0.7c-0.4-0.2-0.8-0.3-1.2-0.5c-0.4-0.2-0.8-0.3-1.3-0.5
		c-0.5-0.2-1-0.4-1.5-0.6c-0.3-0.1-0.6-0.2-0.9-0.4c-0.6-0.2-1.2-0.5-1.9-0.7c-0.2-0.1-0.4-0.1-0.6-0.2c-0.7-0.2-1.4-0.5-2.2-0.7
		c-0.1,0-0.2-0.1-0.3-0.1c-0.8-0.3-1.6-0.5-2.4-0.8c0,0-0.1,0-0.1,0c-5.3-1.6-10.6-2.7-16-3.5c0,0-0.1,0-0.1,0
		c-0.9-0.1-1.7-0.2-2.6-0.3c-0.1,0-0.2,0-0.3,0c-0.8-0.1-1.6-0.2-2.4-0.3c-0.2,0-0.4,0-0.5,0c-0.7-0.1-1.4-0.1-2.2-0.2
		c-0.3,0-0.6,0-0.9-0.1c-0.6,0-1.2-0.1-1.9-0.1c-0.5,0-0.9,0-1.4-0.1c-0.5,0-0.9,0-1.4,0c-0.9,0-1.9,0-2.8,0s-1.9,0-2.8,0
		c-0.5,0-0.9,0-1.4,0c-0.5,0-0.9,0-1.4,0.1c-0.6,0-1.2,0.1-1.9,0.1c-0.3,0-0.6,0-0.9,0.1c-0.7,0.1-1.4,0.1-2.2,0.2
		c-0.2,0-0.4,0-0.5,0c-0.8,0.1-1.6,0.2-2.4,0.3c-0.1,0-0.2,0-0.3,0c-0.9,0.1-1.7,0.2-2.6,0.3c0,0-0.1,0-0.1,0
		c-5.4,0.8-10.8,1.9-16,3.5c0,0-0.1,0-0.1,0c-0.8,0.2-1.6,0.5-2.4,0.8c-0.1,0-0.2,0.1-0.3,0.1c-0.7,0.2-1.4,0.5-2.2,0.7
		c-0.2,0.1-0.4,0.1-0.6,0.2c-0.6,0.2-1.2,0.4-1.9,0.7c-0.3,0.1-0.6,0.2-0.9,0.4c-0.5,0.2-1,0.4-1.5,0.6c-0.4,0.2-0.8,0.3-1.3,0.5
		c-0.4,0.2-0.8,0.3-1.2,0.5c-0.5,0.2-1.1,0.5-1.6,0.7c-0.3,0.1-0.6,0.2-0.8,0.4c-0.6,0.3-1.3,0.6-1.9,0.9c-0.2,0.1-0.3,0.2-0.5,0.2
		c-0.7,0.3-1.4,0.7-2.1,1.1c-0.1,0-0.2,0.1-0.2,0.1c-0.8,0.4-1.6,0.8-2.3,1.2c0,0,0,0,0,0c-5.6,3.1-11,6.6-16,10.5
		c0,0-0.1,0.1-0.1,0.1c-0.7,0.5-1.3,1-2,1.6c-0.1,0.1-0.2,0.2-0.3,0.3c-0.6,0.5-1.2,1-1.8,1.5c-0.2,0.2-0.4,0.3-0.5,0.5
		c-0.5,0.4-1,0.9-1.5,1.3c-0.3,0.3-0.6,0.5-0.8,0.8c-0.4,0.4-0.8,0.7-1.2,1.1c-0.5,0.5-1,1-1.5,1.4c-0.3,0.3-0.7,0.7-1,1
		c-0.5,0.5-1,1-1.4,1.5c-0.4,0.4-0.8,0.8-1.1,1.2c-0.3,0.3-0.5,0.5-0.8,0.8c-0.5,0.5-0.9,1-1.3,1.5c-0.2,0.2-0.3,0.4-0.5,0.5
		c-0.5,0.6-1,1.2-1.5,1.8c-0.1,0.1-0.2,0.2-0.3,0.3c-0.5,0.6-1.1,1.3-1.6,2c0,0-0.1,0.1-0.1,0.1c-3.9,5-7.5,10.4-10.5,16
		c0,0,0,0,0,0c-0.4,0.8-0.8,1.5-1.2,2.3c0,0.1-0.1,0.2-0.1,0.2c-0.4,0.7-0.7,1.4-1.1,2.1c-0.1,0.2-0.2,0.3-0.2,0.5
		c-0.3,0.6-0.6,1.2-0.9,1.9c-0.1,0.3-0.2,0.6-0.4,0.8c-0.2,0.5-0.5,1.1-0.7,1.6c-0.2,0.4-0.3,0.8-0.5,1.2c-0.2,0.4-0.3,0.8-0.5,1.3
		c-0.2,0.5-0.4,1-0.6,1.5c-0.1,0.3-0.2,0.6-0.4,0.9c-0.2,0.6-0.5,1.2-0.7,1.9c-0.1,0.2-0.1,0.4-0.2,0.6c-0.3,0.7-0.5,1.4-0.7,2.2
		c0,0.1-0.1,0.2-0.1,0.3c-0.3,0.8-0.5,1.6-0.8,2.4c0,0,0,0.1,0,0.1c-1.6,5.3-2.7,10.6-3.5,16c0,0,0,0.1,0,0.1
		c-0.1,0.9-0.2,1.7-0.3,2.6c0,0.1,0,0.2,0,0.3c-0.1,0.8-0.2,1.6-0.3,2.4c0,0.2,0,0.4,0,0.5c-0.1,0.7-0.1,1.4-0.2,2.2
		c0,0.3,0,0.6-0.1,0.9c0,0.6-0.1,1.2-0.1,1.9c0,0.5,0,0.9-0.1,1.4c0,0.5,0,0.9,0,1.4c0,0.9,0,1.9,0,2.8s0,1.9,0,2.8
		c0,0.5,0,0.9,0,1.4c0,0.5,0,0.9,0.1,1.4c0,0.6,0.1,1.2,0.1,1.9c0,0.3,0,0.6,0.1,0.9c0.1,0.7,0.1,1.4,0.2,2.2c0,0.2,0,0.4,0,0.5
		c0.1,0.8,0.2,1.6,0.3,2.4c0,0.1,0,0.2,0,0.3c0.1,0.9,0.2,1.7,0.3,2.6c0,0,0,0.1,0,0.1c0.8,5.4,1.9,10.8,3.5,16c0,0,0,0.1,0,0.1
		c0.2,0.8,0.5,1.6,0.8,2.4c0,0.1,0.1,0.2,0.1,0.3c0.2,0.7,0.5,1.4,0.7,2.2c0.1,0.2,0.1,0.4,0.2,0.6c0.2,0.6,0.4,1.2,0.7,1.9
		c0.1,0.3,0.2,0.6,0.4,0.9c0.2,0.5,0.4,1,0.6,1.5c0.2,0.4,0.3,0.8,0.5,1.3c0.2,0.4,0.3,0.8,0.5,1.2c0.2,0.5,0.5,1.1,0.7,1.6
		c0.1,0.3,0.2,0.6,0.4,0.8c0.3,0.6,0.6,1.3,0.9,1.9c0.1,0.2,0.2,0.3,0.2,0.5c0.3,0.7,0.7,1.4,1.1,2.1c0,0.1,0.1,0.2,0.1,0.2
		c0.4,0.8,0.8,1.6,1.2,2.3c0,0,0,0,0,0c3.1,5.6,6.6,11,10.5,16c0,0,0.1,0.1,0.1,0.1c0.5,0.7,1,1.3,1.6,2c0.1,0.1,0.2,0.2,0.3,0.3
		c0.5,0.6,1,1.2,1.5,1.8c0.2,0.2,0.3,0.4,0.5,0.5c0.4,0.5,0.9,1,1.3,1.5c0.3,0.3,0.5,0.6,0.8,0.8c0.4,0.4,0.7,0.8,1.1,1.2
		c0.5,0.5,1,1,1.4,1.5c0.3,0.3,0.7,0.7,1,1c0.5,0.5,1,1,1.5,1.5c0.4,0.4,0.8,0.7,1.2,1.1c0.3,0.3,0.6,0.5,0.8,0.8
		c0.5,0.5,1,0.9,1.5,1.3c0.2,0.2,0.4,0.3,0.5,0.5c0.6,0.5,1.2,1,1.8,1.5c0.1,0.1,0.2,0.2,0.3,0.3c0.6,0.5,1.3,1.1,2,1.6
		c0,0,0.1,0.1,0.1,0.1c5,3.9,10.4,7.5,16,10.5c0,0,0,0,0,0c0.8,0.4,1.5,0.8,2.3,1.2c0.1,0,0.2,0.1,0.3,0.1c0.7,0.4,1.4,0.7,2.1,1.1
		c0.2,0.1,0.4,0.2,0.5,0.3c0.6,0.3,1.2,0.6,1.9,0.9c0.3,0.1,0.6,0.3,0.8,0.4c0.5,0.2,1,0.5,1.6,0.7c0.4,0.2,0.8,0.3,1.2,0.5
		c0.4,0.2,0.8,0.3,1.2,0.5c0.5,0.2,1,0.4,1.5,0.6c0.3,0.1,0.6,0.2,0.9,0.3c0.6,0.2,1.2,0.5,1.9,0.7c0.2,0.1,0.4,0.1,0.6,0.2
		c0.7,0.3,1.5,0.5,2.2,0.7c0.1,0,0.2,0.1,0.3,0.1c0.8,0.3,1.6,0.5,2.4,0.8c0,0,0.1,0,0.1,0c5.3,1.6,10.6,2.7,16,3.5c0,0,0,0,0.1,0
		c0.9,0.1,1.7,0.2,2.6,0.3c0.1,0,0.2,0,0.3,0c0.8,0.1,1.6,0.2,2.4,0.3c0.2,0,0.4,0,0.5,0c0.7,0.1,1.5,0.1,2.2,0.2
		c0.3,0,0.6,0,0.9,0.1c0.6,0,1.2,0.1,1.9,0.1c0.5,0,0.9,0,1.4,0.1c0.5,0,0.9,0,1.4,0c0.9,0,1.9,0,2.8,0s1.9,0,2.8,0
		c0.5,0,0.9,0,1.4,0c0.5,0,0.9,0,1.4-0.1c0.6,0,1.2-0.1,1.9-0.1c0.3,0,0.6,0,0.9-0.1c0.7-0.1,1.5-0.1,2.2-0.2c0.2,0,0.4,0,0.5,0
		c0.8-0.1,1.6-0.2,2.4-0.3c0.1,0,0.2,0,0.3,0c0.9-0.1,1.7-0.2,2.6-0.3c0,0,0,0,0.1,0c5.4-0.8,10.8-1.9,16-3.5c0,0,0.1,0,0.1,0
		c0.8-0.2,1.6-0.5,2.4-0.8c0.1,0,0.2-0.1,0.3-0.1c0.7-0.2,1.5-0.5,2.2-0.7c0.2-0.1,0.4-0.1,0.6-0.2c0.6-0.2,1.3-0.4,1.9-0.7
		c0.3-0.1,0.6-0.2,0.9-0.3c0.5-0.2,1-0.4,1.5-0.6c0.4-0.2,0.8-0.3,1.2-0.5c0.4-0.2,0.8-0.3,1.2-0.5c0.5-0.2,1-0.5,1.6-0.7
		c0.3-0.1,0.6-0.2,0.8-0.4c0.6-0.3,1.2-0.6,1.9-0.9c0.2-0.1,0.4-0.2,0.5-0.3c0.7-0.3,1.4-0.7,2.1-1.1c0.1,0,0.2-0.1,0.3-0.1
		c0.8-0.4,1.5-0.8,2.3-1.2c0,0,0,0,0,0c5.6-3.1,11-6.6,16-10.5c0,0,0.1-0.1,0.1-0.1c0.7-0.5,1.3-1,2-1.6c0.1-0.1,0.2-0.2,0.3-0.3
		c0.6-0.5,1.2-1,1.8-1.5c0.2-0.2,0.4-0.3,0.5-0.5c0.5-0.4,1-0.9,1.5-1.3c0.3-0.3,0.6-0.5,0.8-0.8c0.4-0.4,0.8-0.7,1.2-1.1
		c0.5-0.5,1-1,1.5-1.5c0.3-0.3,0.7-0.7,1-1c0.5-0.5,1-1,1.4-1.5c0.4-0.4,0.8-0.8,1.1-1.2c0.3-0.3,0.5-0.5,0.8-0.8
		c0.5-0.5,0.9-1,1.3-1.5c0.2-0.2,0.3-0.4,0.5-0.5c0.5-0.6,1-1.2,1.5-1.8c0.1-0.1,0.2-0.2,0.3-0.3c0.5-0.6,1.1-1.3,1.6-2
		c0,0,0.1-0.1,0.1-0.1c3.9-5,7.5-10.4,10.5-16c0,0,0,0,0,0c0.4-0.8,0.8-1.5,1.2-2.3c0-0.1,0.1-0.2,0.1-0.2c0.4-0.7,0.7-1.4,1.1-2.1
		c0.1-0.2,0.2-0.3,0.2-0.5c0.3-0.6,0.6-1.2,0.9-1.9c0.1-0.3,0.2-0.6,0.4-0.8c0.2-0.5,0.5-1.1,0.7-1.6c0.2-0.4,0.3-0.8,0.5-1.2
		c0.2-0.4,0.3-0.8,0.5-1.3c0.2-0.5,0.4-1,0.6-1.5c0.1-0.3,0.2-0.6,0.4-0.9c0.2-0.6,0.5-1.2,0.7-1.9c0.1-0.2,0.1-0.4,0.2-0.6
		c0.3-0.7,0.5-1.4,0.7-2.2c0-0.1,0.1-0.2,0.1-0.3c0.3-0.8,0.5-1.6,0.8-2.4c0,0,0-0.1,0-0.1c1.6-5.3,2.7-10.6,3.5-16c0,0,0-0.1,0-0.1
		c0.1-0.9,0.2-1.7,0.3-2.6c0-0.1,0-0.2,0-0.3c0.1-0.8,0.2-1.6,0.3-2.4c0-0.2,0-0.4,0-0.5c0.1-0.7,0.1-1.4,0.2-2.2
		c0-0.3,0-0.6,0.1-0.9c0-0.6,0.1-1.2,0.1-1.9c0-0.5,0-0.9,0.1-1.4c0-0.5,0-0.9,0-1.4c0-0.9,0-1.9,0-2.8s0-1.9,0-2.8
		C2601,7052.7,2600.9,7052.3,2600.9,7051.8z"/>
</g>
<g>
	<path fill="#00008A" d="M4134,4824h-171c-63,0-114-51-114-114s51-114,114-114h171c63,0,114,51,114,114S4197,4824,4134,4824z"/>
</g>
<g>
	<path fill="#1945FF" d="M4395,5139h-432c-63,0-114-51-114-114s51-114,114-114h432c63,0,114,51,114,114S4458,5139,4395,5139z"/>
</g>
<g>
	<path fill="#00008A" d="M4134,5139h-171c-63,0-114-51-114-114s51-114,114-114h171c63,0,114,51,114,114S4197,5139,4134,5139z"/>
</g>
<circle opacity="0.2" fill="#1945FF" cx="-2160" cy="1152" r="432"/>
<circle opacity="0.2" fill="#1945FF" cx="-1872" cy="864" r="144"/>
<circle opacity="0.2" fill="#1945FF" cx="-1872" cy="1440" r="144"/>
<circle opacity="0.2" fill="#FF0079" cx="-1872" cy="864" r="144"/>
<circle opacity="0.2" fill="#FF0079" cx="-1872" cy="1440" r="144"/>
<circle opacity="0.2" fill="#FF0079" cx="-2160" cy="1152" r="144"/>
<circle opacity="0.2" fill="#FF0079" cx="-1584" cy="1152" r="144"/>
<rect x="-2160" y="720" opacity="0.2" fill="#1945FF" width="288" height="288"/>
<rect x="-2160" y="1296" opacity="0.2" fill="#1945FF" width="288" height="288"/>
<rect x="-2219" y="863.7" transform="matrix(0.7071 -0.7071 0.7071 0.7071 -1302.9714 -1130.1813)" opacity="0.2" fill="#FF0079" width="406.5" height="288"/>
<rect x="-2016" y="864" opacity="0.2" fill="#FF0079" width="288" height="576"/>
<rect x="-2160" y="1008" opacity="0.2" fill="#FF0079" width="576" height="288"/>
<path opacity="0.2" fill="#1945FF" d="M-504,1296h-288c-79.5,0-144-64.5-144-144s64.5-144,144-144h288c79.5,0,144-64.5,144-144
	s-64.5-144-144-144h-288c-238.6,0-432,193.4-432,432s193.4,432,432,432h288c79.5,0,144-64.5,144-144S-424.5,1296-504,1296z"/>
<path opacity="0.2" fill="#FF0079" d="M-216,1008h-144V864c0-79.5-64.5-144-144-144c-39.8,0-75.8,16.1-101.8,42.2l-287.5,287.5l0,0
	c-26.4,26.1-42.7,62.3-42.7,102.3c0,79.5,64.5,144,144,144h144v144c0,79.5,64.5,144,144,144s144-64.5,144-144v-144h144
	c79.5,0,144-64.5,144-144S-136.5,1008-216,1008z"/>
<path fill="#1945FF" d="M435.7,1119.3c-0.2,0.8-0.4,1.7-0.6,2.5C435.3,1121,435.5,1120.2,435.7,1119.3z"/>
<path fill="#1945FF" d="M435,1122.8c-0.2,0.8-0.3,1.7-0.5,2.5C434.6,1124.5,434.8,1123.7,435,1122.8z"/>
<path fill="#1945FF" d="M448,1086.1c-0.5,1-1,1.9-1.5,2.9C447,1088,447.5,1087,448,1086.1z"/>
<path fill="#1945FF" d="M449.6,1083c-0.5,1-1.1,2-1.6,2.9C448.5,1084.9,449.1,1083.9,449.6,1083z"/>
<path fill="#1945FF" d="M436.6,1115.8c-0.2,0.9-0.4,1.7-0.6,2.6C436.1,1117.6,436.4,1116.7,436.6,1115.8z"/>
<path fill="#1945FF" d="M434.3,1126.4c-0.1,0.8-0.3,1.6-0.4,2.5C434,1128,434.1,1127.2,434.3,1126.4z"/>
<path fill="#1945FF" d="M433.7,1130c-0.1,0.8-0.2,1.6-0.3,2.4C433.4,1131.6,433.6,1130.8,433.7,1130z"/>
<path fill="#1945FF" d="M444.9,1092.4c-0.4,1-0.9,1.9-1.3,2.9C444,1094.3,444.4,1093.4,444.9,1092.4z"/>
<path fill="#1945FF" d="M440.8,1102.2c-0.3,0.9-0.7,1.9-1,2.8C440.2,1104.1,440.5,1103.1,440.8,1102.2z"/>
<path fill="#1945FF" d="M442.1,1098.9c-0.4,0.9-0.7,1.9-1.1,2.8C441.4,1100.8,441.7,1099.8,442.1,1098.9z"/>
<path fill="#1945FF" d="M439.7,1105.6c-0.3,0.9-0.6,1.8-0.9,2.7C439,1107.4,439.3,1106.5,439.7,1105.6z"/>
<path fill="#1945FF" d="M446.4,1089.2c-0.5,1-0.9,1.9-1.4,2.9C445.5,1091.1,445.9,1090.2,446.4,1089.2z"/>
<path fill="#1945FF" d="M437.5,1112.4c-0.3,0.9-0.5,1.8-0.7,2.7C437,1114.2,437.3,1113.3,437.5,1112.4z"/>
<path fill="#1945FF" d="M438.5,1109c-0.3,0.9-0.5,1.8-0.8,2.7C438,1110.8,438.3,1109.9,438.5,1109z"/>
<path fill="#1945FF" d="M453.1,1076.9c-0.6,1-1.2,2-1.8,2.9C451.9,1078.9,452.5,1077.9,453.1,1076.9z"/>
<path fill="#1945FF" d="M455,1073.9c5.7-8.8,12.3-16.9,19.7-24.3h0C467.3,1057,460.7,1065.1,455,1073.9z"/>
<path fill="#1945FF" d="M432,1148.3c0,1.2,0,2.5,0,3.7C432,1150.8,432,1149.5,432,1148.3z"/>
<path fill="#1945FF" d="M432.2,1144.6c0,0.8-0.1,1.6-0.1,2.4C432.1,1146.2,432.1,1145.4,432.2,1144.6z"/>
<path fill="#1945FF" d="M455,1073.9c-0.6,1-1.2,1.9-1.8,2.9C453.7,1075.9,454.4,1074.9,455,1073.9z"/>
<path fill="#1945FF" d="M443.5,1095.6c-0.4,0.9-0.8,1.9-1.2,2.9C442.7,1097.5,443,1096.6,443.5,1095.6z"/>
<path fill="#1945FF" d="M432.8,1137.2c-0.1,0.8-0.1,1.6-0.2,2.4C432.6,1138.8,432.7,1138,432.8,1137.2z"/>
<path fill="#1945FF" d="M451.3,1079.9c-0.6,1-1.1,2-1.7,2.9C450.2,1081.9,450.8,1080.9,451.3,1079.9z"/>
<path fill="#1945FF" d="M433.2,1133.6c-0.1,0.8-0.2,1.6-0.3,2.4C433,1135.2,433.1,1134.4,433.2,1133.6z"/>
<path fill="#1945FF" d="M432.4,1140.9c-0.1,0.8-0.1,1.6-0.2,2.4C432.3,1142.4,432.4,1141.7,432.4,1140.9z"/>
<path fill="#FF0079" d="M720,1440v-144H576c-79.5,0-144-64.5-144-144c0-1.2,0-2.5,0-3.7c0-0.4,0-0.9,0-1.3c0-0.8,0.1-1.6,0.1-2.4
	c0-0.4,0.1-0.9,0.1-1.3c0-0.8,0.1-1.6,0.2-2.4c0-0.4,0.1-0.9,0.1-1.3c0.1-0.8,0.1-1.6,0.2-2.4c0-0.4,0.1-0.8,0.1-1.2
	c0.1-0.8,0.2-1.6,0.3-2.4c0.1-0.4,0.1-0.8,0.2-1.2c0.1-0.8,0.2-1.6,0.3-2.4c0.1-0.4,0.1-0.7,0.2-1.1c0.1-0.8,0.3-1.6,0.4-2.5
	c0.1-0.4,0.1-0.7,0.2-1.1c0.2-0.8,0.3-1.7,0.5-2.5c0.1-0.3,0.1-0.7,0.2-1c0.2-0.8,0.4-1.7,0.6-2.5c0.1-0.3,0.1-0.6,0.2-0.9
	c0.2-0.9,0.4-1.7,0.6-2.6c0.1-0.3,0.1-0.5,0.2-0.8c0.2-0.9,0.5-1.8,0.7-2.7c0.1-0.2,0.1-0.5,0.2-0.7c0.3-0.9,0.5-1.8,0.8-2.7
	c0.1-0.2,0.1-0.4,0.2-0.6c0.3-0.9,0.6-1.8,0.9-2.7c0.1-0.2,0.1-0.4,0.2-0.6c0.3-0.9,0.6-1.9,1-2.8c0.1-0.2,0.1-0.3,0.2-0.5
	c0.4-0.9,0.7-1.9,1.1-2.8c0.1-0.1,0.1-0.3,0.2-0.4c0.4-1,0.8-1.9,1.2-2.9c0-0.1,0.1-0.2,0.2-0.3c0.4-1,0.8-1.9,1.3-2.9
	c0-0.1,0.1-0.2,0.1-0.3c0.4-1,0.9-1.9,1.4-2.9c0-0.1,0.1-0.1,0.1-0.2c0.5-1,1-2,1.5-2.9c0-0.1,0.1-0.1,0.1-0.2c0.5-1,1-2,1.6-2.9
	c0,0,0-0.1,0.1-0.1c0.5-1,1.1-2,1.7-2.9c0,0,0,0,0-0.1c0.6-1,1.2-2,1.8-2.9c0,0,0,0,0,0c0.6-1,1.2-2,1.8-2.9h0
	c5.7-8.8,12.3-16.9,19.7-24.3l0,0l287.5-287.5C788.2,736.1,824.2,720,864,720H576c-238.6,0-432,193.4-432,432s193.4,432,432,432h288
	C784.5,1584,720,1519.5,720,1440z"/>
<path fill="#1945FF" d="M1152,1008h-144V864c0,79.5-64.5,144-144,144H576c-39.5,0-75.3,15.9-101.3,41.7h0
	c-7.4,7.3-14,15.5-19.7,24.3h0c-0.6,1-1.2,1.9-1.8,2.9c0,0,0,0,0,0c-0.6,1-1.2,2-1.8,2.9c0,0,0,0,0,0.1c-0.6,1-1.1,2-1.7,2.9
	c0,0,0,0.1-0.1,0.1c-0.5,1-1.1,2-1.6,2.9c0,0.1-0.1,0.1-0.1,0.2c-0.5,1-1,1.9-1.5,2.9c0,0.1-0.1,0.1-0.1,0.2c-0.5,1-0.9,1.9-1.4,2.9
	c0,0.1-0.1,0.2-0.1,0.3c-0.4,1-0.9,1.9-1.3,2.9c0,0.1-0.1,0.2-0.2,0.3c-0.4,0.9-0.8,1.9-1.2,2.9c-0.1,0.1-0.1,0.3-0.2,0.4
	c-0.4,0.9-0.7,1.9-1.1,2.8c-0.1,0.2-0.1,0.3-0.2,0.5c-0.3,0.9-0.7,1.9-1,2.8c-0.1,0.2-0.1,0.4-0.2,0.6c-0.3,0.9-0.6,1.8-0.9,2.7
	c-0.1,0.2-0.1,0.4-0.2,0.6c-0.3,0.9-0.5,1.8-0.8,2.7c-0.1,0.2-0.1,0.5-0.2,0.7c-0.3,0.9-0.5,1.8-0.7,2.7c-0.1,0.3-0.1,0.5-0.2,0.8
	c-0.2,0.9-0.4,1.7-0.6,2.6c-0.1,0.3-0.1,0.6-0.2,0.9c-0.2,0.8-0.4,1.7-0.6,2.5c-0.1,0.3-0.1,0.7-0.2,1c-0.2,0.8-0.3,1.7-0.5,2.5
	c-0.1,0.4-0.1,0.7-0.2,1.1c-0.1,0.8-0.3,1.6-0.4,2.5c-0.1,0.4-0.1,0.7-0.2,1.1c-0.1,0.8-0.2,1.6-0.3,2.4c-0.1,0.4-0.1,0.8-0.2,1.2
	c-0.1,0.8-0.2,1.6-0.3,2.4c0,0.4-0.1,0.8-0.1,1.2c-0.1,0.8-0.1,1.6-0.2,2.4c0,0.4-0.1,0.9-0.1,1.3c-0.1,0.8-0.1,1.6-0.2,2.4
	c0,0.4-0.1,0.9-0.1,1.3c0,0.8-0.1,1.6-0.1,2.4c0,0.4,0,0.9,0,1.3c0,1.2,0,2.5,0,3.7c0,79.5,64.5,144,144,144h144h144
	c79.5,0,144,64.5,144,144v-144h144c79.5,0,144-64.5,144-144S1231.5,1008,1152,1008z"/>
<path fill="#1945FF" d="M455,1073.9L455,1073.9L455,1073.9z"/>
<path fill="#1945FF" d="M455,1073.9L455,1073.9L455,1073.9z"/>
<path fill="#1945FF" d="M443.6,1095.3c0,0.1-0.1,0.2-0.2,0.3C443.5,1095.5,443.6,1095.4,443.6,1095.3z"/>
<path fill="#1945FF" d="M443.6,1095.3c0,0.1-0.1,0.2-0.2,0.3C443.5,1095.5,443.6,1095.4,443.6,1095.3z"/>
<path fill="#1945FF" d="M448,1085.9c0,0.1-0.1,0.1-0.1,0.2C448,1086,448,1086,448,1085.9z"/>
<path fill="#1945FF" d="M448,1085.9c0,0.1-0.1,0.1-0.1,0.2C448,1086,448,1086,448,1085.9z"/>
<path fill="#1945FF" d="M445,1092.1c0,0.1-0.1,0.2-0.1,0.3C444.9,1092.3,445,1092.2,445,1092.1z"/>
<path fill="#1945FF" d="M445,1092.1c0,0.1-0.1,0.2-0.1,0.3C444.9,1092.3,445,1092.2,445,1092.1z"/>
<path fill="#1945FF" d="M446.5,1089c0,0.1-0.1,0.1-0.1,0.2C446.4,1089.1,446.4,1089.1,446.5,1089z"/>
<path fill="#1945FF" d="M446.5,1089c0,0.1-0.1,0.1-0.1,0.2C446.4,1089.1,446.4,1089.1,446.5,1089z"/>
<path fill="#1945FF" d="M453.1,1076.9C453.1,1076.9,453.1,1076.9,453.1,1076.9C453.1,1076.9,453.1,1076.9,453.1,1076.9z"/>
<path fill="#1945FF" d="M453.1,1076.9C453.1,1076.9,453.1,1076.9,453.1,1076.9C453.1,1076.9,453.1,1076.9,453.1,1076.9z"/>
<path fill="#1945FF" d="M449.7,1082.8c0,0,0,0.1-0.1,0.1C449.6,1082.9,449.6,1082.9,449.7,1082.8z"/>
<path fill="#1945FF" d="M449.7,1082.8c0,0,0,0.1-0.1,0.1C449.6,1082.9,449.6,1082.9,449.7,1082.8z"/>
<path fill="#1945FF" d="M451.4,1079.8C451.4,1079.9,451.3,1079.9,451.4,1079.8C451.3,1079.9,451.4,1079.9,451.4,1079.8z"/>
<path fill="#1945FF" d="M451.4,1079.8C451.4,1079.9,451.3,1079.9,451.4,1079.8C451.3,1079.9,451.4,1079.9,451.4,1079.8z"/>
<path fill="#1945FF" d="M433.9,1128.9c-0.1,0.4-0.1,0.7-0.2,1.1C433.7,1129.6,433.8,1129.2,433.9,1128.9z"/>
<path fill="#1945FF" d="M433.9,1128.9c-0.1,0.4-0.1,0.7-0.2,1.1C433.7,1129.6,433.8,1129.2,433.9,1128.9z"/>
<path fill="#1945FF" d="M432.5,1139.6c0,0.4-0.1,0.9-0.1,1.3C432.5,1140.4,432.5,1140,432.5,1139.6z"/>
<path fill="#1945FF" d="M432.5,1139.6c0,0.4-0.1,0.9-0.1,1.3C432.5,1140.4,432.5,1140,432.5,1139.6z"/>
<path fill="#1945FF" d="M432.3,1143.2c0,0.4-0.1,0.9-0.1,1.3C432.2,1144.1,432.2,1143.7,432.3,1143.2z"/>
<path fill="#1945FF" d="M432.3,1143.2c0,0.4-0.1,0.9-0.1,1.3C432.2,1144.1,432.2,1143.7,432.3,1143.2z"/>
<path fill="#1945FF" d="M432.9,1136c0,0.4-0.1,0.8-0.1,1.2C432.8,1136.8,432.8,1136.4,432.9,1136z"/>
<path fill="#1945FF" d="M432.9,1136c0,0.4-0.1,0.8-0.1,1.2C432.8,1136.8,432.8,1136.4,432.9,1136z"/>
<path fill="#1945FF" d="M434.5,1125.3c-0.1,0.4-0.1,0.7-0.2,1.1C434.3,1126,434.4,1125.7,434.5,1125.3z"/>
<path fill="#1945FF" d="M434.5,1125.3c-0.1,0.4-0.1,0.7-0.2,1.1C434.3,1126,434.4,1125.7,434.5,1125.3z"/>
<path fill="#1945FF" d="M433.3,1132.4c-0.1,0.4-0.1,0.8-0.2,1.2C433.2,1133.2,433.3,1132.8,433.3,1132.4z"/>
<path fill="#1945FF" d="M433.3,1132.4c-0.1,0.4-0.1,0.8-0.2,1.2C433.2,1133.2,433.3,1132.8,433.3,1132.4z"/>
<path fill="#1945FF" d="M432.1,1147c0,0.4,0,0.9,0,1.3C432.1,1147.8,432.1,1147.4,432.1,1147z"/>
<path fill="#1945FF" d="M432.1,1147c0,0.4,0,0.9,0,1.3C432.1,1147.8,432.1,1147.4,432.1,1147z"/>
<path fill="#1945FF" d="M864,1296H720v144c0,79.5,64.5,144,144,144s144-64.5,144-144S943.5,1296,864,1296z"/>
<path fill="#00008A" d="M864,1296H720v144c0,79.5,64.5,144,144,144s144-64.5,144-144S943.5,1296,864,1296z"/>
<path fill="#1945FF" d="M474.7,1049.6L474.7,1049.6c26-25.7,61.8-41.6,101.3-41.6h288c79.5,0,144-64.5,144-144s-64.5-144-144-144
	c-39.8,0-75.8,16.1-101.8,42.2L474.7,1049.6z"/>
<path fill="#00008A" d="M474.7,1049.6L474.7,1049.6c26-25.7,61.8-41.6,101.3-41.6h288c79.5,0,144-64.5,144-144s-64.5-144-144-144
	c-39.8,0-75.8,16.1-101.8,42.2L474.7,1049.6z"/>
<path fill="#1945FF" d="M441,1101.7c-0.1,0.2-0.1,0.3-0.2,0.5C440.9,1102.1,441,1101.9,441,1101.7z"/>
<path fill="#1945FF" d="M441,1101.7c-0.1,0.2-0.1,0.3-0.2,0.5C440.9,1102.1,441,1101.9,441,1101.7z"/>
<path fill="#1945FF" d="M438.8,1108.3c-0.1,0.2-0.1,0.4-0.2,0.6C438.6,1108.7,438.7,1108.5,438.8,1108.3z"/>
<path fill="#1945FF" d="M438.8,1108.3c-0.1,0.2-0.1,0.4-0.2,0.6C438.6,1108.7,438.7,1108.5,438.8,1108.3z"/>
<path fill="#1945FF" d="M439.8,1105c-0.1,0.2-0.1,0.4-0.2,0.6C439.7,1105.4,439.8,1105.2,439.8,1105z"/>
<path fill="#1945FF" d="M439.8,1105c-0.1,0.2-0.1,0.4-0.2,0.6C439.7,1105.4,439.8,1105.2,439.8,1105z"/>
<path fill="#1945FF" d="M442.3,1098.5c-0.1,0.1-0.1,0.3-0.2,0.4C442.2,1098.8,442.2,1098.6,442.3,1098.5z"/>
<path fill="#1945FF" d="M442.3,1098.5c-0.1,0.1-0.1,0.3-0.2,0.4C442.2,1098.8,442.2,1098.6,442.3,1098.5z"/>
<path fill="#1945FF" d="M437.7,1111.7c-0.1,0.2-0.1,0.5-0.2,0.7C437.6,1112.1,437.7,1111.9,437.7,1111.7z"/>
<path fill="#1945FF" d="M437.7,1111.7c-0.1,0.2-0.1,0.5-0.2,0.7C437.6,1112.1,437.7,1111.9,437.7,1111.7z"/>
<path fill="#1945FF" d="M435.2,1121.9c-0.1,0.3-0.1,0.7-0.2,1C435,1122.5,435.1,1122.2,435.2,1121.9z"/>
<path fill="#1945FF" d="M435.2,1121.9c-0.1,0.3-0.1,0.7-0.2,1C435,1122.5,435.1,1122.2,435.2,1121.9z"/>
<path fill="#1945FF" d="M435.9,1118.4c-0.1,0.3-0.1,0.6-0.2,0.9C435.8,1119,435.9,1118.7,435.9,1118.4z"/>
<path fill="#1945FF" d="M435.9,1118.4c-0.1,0.3-0.1,0.6-0.2,0.9C435.8,1119,435.9,1118.7,435.9,1118.4z"/>
<path fill="#1945FF" d="M436.8,1115c-0.1,0.3-0.1,0.5-0.2,0.8C436.6,1115.6,436.7,1115.3,436.8,1115z"/>
<path fill="#1945FF" d="M436.8,1115c-0.1,0.3-0.1,0.5-0.2,0.8C436.6,1115.6,436.7,1115.3,436.8,1115z"/>
</svg>
